<svg xmlns="http://www.w3.org/2000/svg" width="1341" height="574.001" viewBox="0 0 1341 574.001">
  <g id="Group_233" data-name="Group 233" transform="translate(23.997 -2857.999)">
    <g id="Vector_Smart_Object1_copy_6" data-name="Vector Smart Object1 copy 6" transform="translate(-24.003 2347.997)">
      <path id="Path_13" data-name="Path 13" d="M334.837,659.047c-15.953,0-28.885,12.16-28.885,27.164a25.866,25.866,0,0,0,.333,4.148C286.228,686,269.4,695.823,269.7,718.694c-16.886-33.459-51.666-18.267-57.947-3.257-.536,1.288.091,2.748.257,4.089a30.827,30.827,0,0,0-7.166-.842,29.083,29.083,0,0,0-26.069,15.455A18.3,18.3,0,0,0,162.148,724c-9.178,0-16.768,6.381-18.028,14.682-11.034-1.589-17.1,2.281-23.425,10.743v63.017c19.589,10.5,39.474,55.74,39.474,51.995,0-4.524,0-.172-.005-.258,1.025.166-.338.258,3.143.258s11.125-2.63,14.456-6.708c2.784,12.267,13.619-.971,28.247-.971s20.421,25.893,21.3,11.634c4.7,2.007,5.75,3.129,15.438,3.129s25.967-7.105,32.415-17.65c5.214,7.094,10.878,11.747,23.789,11.747s67.742,38.149,67.742,29.939-.113-2.8-.333-4.148c.322.011-.483.016.966.016s3.9,77.619,6.276,77.023c4.908,14.564,16.441-19.169,29.609-19.169S413,856.164,414.873,843.419c3.057,24.895,3.98,47.793,18.484,47.793s24.7,33.733,29.615,19.169a39.248,39.248,0,0,0,7.44.912c1.443,0,.638-.011.96-.021-.22,1.352-.333-4.052-.333,4.154s46.7-49.719,59.6-49.719,18.576-4.647,23.784-11.747c6.448,10.55,22.733,17.655,32.42,17.655s10.733-1.122,15.438-3.129c.874,14.258,6.667-11.634,21.3-11.634s25.463,13.233,28.247.971c3.331,4.073,10.975,6.7,14.456,6.7s2.119-.086,3.143-.252c-.005.081-.005-3.982-.005.252,0,3.29,10.1,10.722,22.529,18.181v-138.4a31.909,31.909,0,0,0-6.48.279c-1.261-8.3-8.851-14.682-18.028-14.682a18.3,18.3,0,0,0-16.628,10.137,29.081,29.081,0,0,0-26.074-15.45,30.522,30.522,0,0,0-7.161.843c.166-1.342.794-2.807.257-4.095-6.281-15-41.061-30.2-57.953,3.263.3-22.877-16.521-32.7-36.582-28.34a25.821,25.821,0,0,0,.338-4.148c0-15-12.933-27.164-28.885-27.164A29.39,29.39,0,0,0,470.9,676.8a39.969,39.969,0,0,0-20.1-5.35,40.742,40.742,0,0,0-6.152.461,35.463,35.463,0,0,0-67.9-6.316,39.783,39.783,0,0,0-18.055,5.3A29.4,29.4,0,0,0,334.837,659.047Z" fill="#5fa391" fill-rule="evenodd"/>
      <g id="Group_5" data-name="Group 5">
        <path id="Path_14" data-name="Path 14" d="M1341.005,755.062V982.043H.005V755.062C281.964,713.172,1064.722,701.823,1341.005,755.062Z" fill="#e89f00" fill-rule="evenodd"/>
        <path id="Path_15" data-name="Path 15" d="M1341.005,839.346v142.7H.005v-142.7C281.964,797.456,1064.722,786.107,1341.005,839.346Z" fill="#f4b100" fill-rule="evenodd"/>
        <path id="Path_16" data-name="Path 16" d="M1341.005,923.63v58.413H.005V923.63C281.964,881.74,1064.722,870.39,1341.005,923.63Z" fill="#ffc300" fill-rule="evenodd"/>
      </g>
      <path id="Path_17" data-name="Path 17" d="M1341.005,977.294v58.413H.005V977.294C281.964,935.4,1064.722,924.054,1341.005,977.294Z" fill="#f4cf67" fill-rule="evenodd"/>
      <path id="Path_18" data-name="Path 18" d="M1341.005,1025.591V1084H.005v-58.413C281.964,983.7,1064.722,972.351,1341.005,1025.591Z" fill="#f9e3aa" fill-rule="evenodd"/>
    </g>
    <g id="Group_77" data-name="Group 77" transform="translate(-701.721 2439.199)">
      <g id="Group_60" data-name="Group 60">
        <path id="Path_243" data-name="Path 243" d="M1007.01,492.707v41.352h11.255V492.707l-7.944-14.122H999.063Z" fill="#031936" fill-rule="evenodd"/>
        <rect id="Rectangle_4" data-name="Rectangle 4" width="22.515" height="44.924" transform="translate(1001.634 513.34)" fill="#031936"/>
      </g>
      <path id="Path_244" data-name="Path 244" d="M964.664,652.177H882.371a100.428,100.428,0,0,0,2.679-20.441c0-3.97-.015-1.746-.044-2.616h84.187a57.251,57.251,0,0,0-4.539,22.389Z" fill-rule="evenodd"/>
      <path id="Path_245" data-name="Path 245" d="M1036.943,550.955H930.255L904.667,473.8H773.68l.7,108.529c46.568-15.508,103.038-18.864,105.182,46.791H980.076c8.9-20.987,26.358-25.015,43.556-25.015s19.195,2.4,27.379,6.635V564.824A14.011,14.011,0,0,0,1036.943,550.955Z" fill="#0f4283" fill-rule="evenodd"/>
      <path id="Path_246" data-name="Path 246" d="M921.079,550.955h-78.4v-68.4h54.071l24.332,68.4Zm-82.524,0H779.73v-68.4h58.825Z" fill="#dbf2ff" fill-rule="evenodd"/>
      <path id="Path_247" data-name="Path 247" d="M886.763,556.25h35.6l14.97,40.088H906.3a94.134,94.134,0,0,0-19.533-33.86Z" fill="#dbf2ff" fill-rule="evenodd"/>
      <g id="Group_61" data-name="Group 61">
        <rect id="Rectangle_5" data-name="Rectangle 5" width="75.848" height="14.042" transform="translate(940.651 573.838)" fill="#072c5e"/>
        <path id="Path_248" data-name="Path 248" d="M940.652,592.562h64.772a58.047,58.047,0,0,0-22.58,14.043H940.652Z" fill="#072c5e" fill-rule="evenodd"/>
        <path id="Path_249" data-name="Path 249" d="M940.652,610.923H978.9a62.422,62.422,0,0,0-8.739,14.043H940.652Z" fill="#072c5e" fill-rule="evenodd"/>
      </g>
      <g id="Group_69" data-name="Group 69">
        <path id="Path_250" data-name="Path 250" d="M889.476,566.135l4.058-.285a.961.961,0,0,1,.962.919c-.849,10.967,4.867,8.414,7.286,8.506a2.851,2.851,0,0,1,3.135,2.041c.756,2.616-3.42,3.018-5.451,3.143-2.934.174-4.411-1.035-5.751.174a11.365,11.365,0,0,1-3.861.537c-1.443-.193-1.948-2.4-2.232-3.844-.4-2.046.358-3.09,1.143-5.348l.01-4.787C888.774,566.72,889,566.154,889.476,566.135Z" fill="#3d1d0a" fill-rule="evenodd"/>
        <path id="Path_251" data-name="Path 251" d="M892.969,548.828l3.071,24.744-8.248.938-1.32-13.622-1.6-14.256C890.109,543.818,892.729,545.733,892.969,548.828Z" fill="#608913" fill-rule="evenodd"/>
        <path id="Path_252" data-name="Path 252" d="M875.433,555.23c-4.068.711-14.033.614-17.732-1.412l2.507-11.649,14.308,1.354,14.308,1.6c4.514.658,3.93,3.7,3.189,6.083l-1.855,2.95A87.826,87.826,0,0,0,875.433,555.23Z" fill="#072c5e" fill-rule="evenodd"/>
        <path id="Path_253" data-name="Path 253" d="M852.264,542.236l7.988-5.745,6.374,1.915,1.364,1.683,2.439,1.663,17.286,1.122c1.408.2,2.021.111,3.165,1.088,2.34,1.992,1.153,6.441-1.644,10.392-4.828.745-14.705,2.428-18.915,2.6C859.816,557.382,850.6,555.544,852.264,542.236Z" fill="#7da427" fill-rule="evenodd"/>
        <g id="Group_62" data-name="Group 62">
          <path id="Path_254" data-name="Path 254" d="M855.478,502.883l-.657,4.894,6.084,4.333,1.128-1.156c1.251-4.2.039-3.724,1.2-8.791l-6.437-3.134C856.572,501.979,855.9,500.78,855.478,502.883Z" fill="#f0c17d" fill-rule="evenodd"/>
          <path id="Path_255" data-name="Path 255" d="M867.053,501.181a.726.726,0,0,0,.329.856.609.609,0,0,1-.412.663c-1.212-.092-.756.682-.662.691.878.087.77.406.618.682-.25.053-.358.155-.383.276-.083.377.623,1.127.078,1.784-.653.788-4.264-.851-5.942-1.605-1.393-.624-.967-1.567-.859-3.027-.775.121-1.389-.092-1.457-1.3a17.4,17.4,0,0,1-2.134-4.13s2.38-6.485,2.542-6.528,5.24.469,5.24.469c.643.948,1.658,1.813,2.331,2.916a10.044,10.044,0,0,1,1.207,3.206,1.575,1.575,0,0,1-.025,1.243,1.386,1.386,0,0,0-.167.484c.029,1.223,1.266,2.268,1.212,2.611A1.41,1.41,0,0,1,867.053,501.181Z" fill="#ffdba7" fill-rule="evenodd"/>
          <path id="Path_256" data-name="Path 256" d="M861.96,497.54a14.653,14.653,0,0,0-.339,2.273c-.623-.585-.79-1.04-1.305-1.518-.716-.609-1.624-1.19-2.272-.9-.741.329-.294,1.688.353,2.606a1.669,1.669,0,0,1,.3,1.4c-.236.8-1.065.469-1.757,1.277a22.445,22.445,0,0,0-1.663,1.934,7.122,7.122,0,0,0-1.05-3.554,7.388,7.388,0,0,1-1.07-2.384,7.068,7.068,0,0,1,3.9-8.371c3.655-1.659,8.037-.232,9.229,2.524a8.233,8.233,0,0,0-2.944.933,4.62,4.62,0,0,0-.962,4.226Z" fill="#632404" fill-rule="evenodd"/>
        </g>
        <path id="Path_257" data-name="Path 257" d="M854.752,505.6c-1.943,3.888-5.01,6.364-5.667,11.509-1.075,8.385.442,16.664,2.964,29.087,4.117,1.451,13.365-5.184,14.386-8.124.638-7.336,2.193-13.666,1.521-16.886-.51-2.442-2.551-5.779-5.412-10.639A21.4,21.4,0,0,1,854.752,505.6Z" fill="#ffa000" fill-rule="evenodd"/>
        <path id="Path_258" data-name="Path 258" d="M854.752,505.6c-1.943,3.888-5.01,6.364-5.667,11.509-1.075,8.385.53,16.708,3.052,29.131,1.585.561,3.719-.082,6.079-1.253a28.367,28.367,0,0,1-1.7-4.478c-3.616-12-4.519-21.094-.078-33.357A12.884,12.884,0,0,1,854.752,505.6Z" fill="#f98204" fill-rule="evenodd"/>
        <path id="Path_259" data-name="Path 259" d="M851.729,510.408a15.414,15.414,0,0,0-2.645,6.7c-1.075,8.385.4,16.708,2.924,29.131,4.112,1.456,13.4-5.227,14.425-8.168.638-7.336,2.193-13.666,1.521-16.886a20.579,20.579,0,0,0-2.3-5.276c-3.749-5.261-7.218-7.544-13.93-5.5Zm10.956,21.519c-.834,7.273-8.4,5.566-9.519.638-1.737-7.64-2.851-20.6,3.528-20.919C864.1,511.264,863.589,524.088,862.686,531.927Z" fill="#7da427" fill-rule="evenodd"/>
        <path id="Path_260" data-name="Path 260" d="M851.729,510.408a15.414,15.414,0,0,0-2.645,6.7c-.927,7.254-.02,14.454,1.874,24.3.407,2.118.986,4.139,1.271,6.146,1.212,8.5,9.185,9.763,18.091,9.406,1.128-.048,2.664-.2,4.4-.421l-.7-2.176c-10.191-3.414-14.337-3.327-17.507-13.854-.5-1.649-.942-3.245-1.33-4.8a5.508,5.508,0,0,1-2.017-3.138c-1.551-6.8-2.6-17.825,1.7-20.388.211-.817.447-1.654.716-2.5A16.334,16.334,0,0,0,851.729,510.408Z" fill="#608913" fill-rule="evenodd"/>
        <path id="Path_261" data-name="Path 261" d="M842.6,521.08a1.842,1.842,0,0,0-1.5,2.137l3.714,19.71a1.868,1.868,0,0,0,2.174,1.47C853.668,542.57,849.158,519.262,842.6,521.08Z" fill="#072c5e" fill-rule="evenodd"/>
        <path id="Path_262" data-name="Path 262" d="M887.587,566l4.068.024a.951.951,0,0,1,.883.987c-1.7,10.871,4.2,8.762,6.6,9.038a2.842,2.842,0,0,1,2.973,2.268c.545,2.664-3.646,2.752-5.682,2.718-2.939-.048-4.323-1.359-5.75-.256a11.35,11.35,0,0,1-3.891.242c-1.428-.3-1.757-2.539-1.928-4-.24-2.075.6-3.056,1.56-5.252l.383-4.768C886.841,566.536,887.111,565.985,887.587,566Z" fill="#643112" fill-rule="evenodd"/>
        <path id="Path_263" data-name="Path 263" d="M893.185,548.828l.113,25-8.891,1.528-1.845-17.235,1.879-10.9c2.257-1.209,3.5-4.072,4.936-3.922C893.038,543.673,893.048,547.067,893.185,548.828Z" fill="#7da427" fill-rule="evenodd"/>
        <rect id="Rectangle_6" data-name="Rectangle 6" width="40.187" height="13.095" rx="3.748" transform="translate(844.288 551.763)" fill="#072c5e"/>
        <g id="Group_64" data-name="Group 64">
          <g id="Group_63" data-name="Group 63">
            <path id="Path_264" data-name="Path 264" d="M897.9,520.725l-10.146,11.2,6.2-2.642,1.988-2.194Z" fill-rule="evenodd"/>
            <rect id="Rectangle_7" data-name="Rectangle 7" width="2.349" height="38.33" transform="translate(893.172 528.174) rotate(-48.235)"/>
          </g>
          <path id="Path_265" data-name="Path 265" d="M896.61,517.3l-12.448,13.743a1.9,1.9,0,0,0,.157,2.718h0a1.979,1.979,0,0,0,2.758-.15l12.453-13.748a1.907,1.907,0,0,0-.157-2.718v0A1.981,1.981,0,0,0,896.61,517.3Z" fill="#f98204" fill-rule="evenodd"/>
        </g>
        <g id="Group_67" data-name="Group 67">
          <g id="Group_65" data-name="Group 65">
            <path id="Path_266" data-name="Path 266" d="M860.031,525.452c1.644,1.523,5.579,5.667,7.792,7.113.137.087,7.6,1.064,4.455-4.884-.054-.687-3.013-2.916-7.88-9.754-4.014-5.643-8.518-5.121-9.749-2.747C853.511,517.381,855.292,521.056,860.031,525.452Z" fill="#ffdba7" fill-rule="evenodd"/>
            <path id="Path_267" data-name="Path 267" d="M859.7,525.737c.819-2.834,4.4-5.136,6.732-5.6-.5-.7-1.084-1.5-1.757-2.447-4.406-6.19-7.458-8.719-10.795-4.7C849.939,517.937,857.519,523.716,859.7,525.737Z" fill="#ffa000" fill-rule="evenodd"/>
          </g>
          <g id="Group_66" data-name="Group 66">
            <path id="Path_268" data-name="Path 268" d="M869.815,532.923c6.668-1.006,11.977-4.463,18.606-6.34-.545-2.065-.761-2.408-.711-3.506,0,0-12.993,2.287-18.728,2.732C864.752,526.143,865.272,533.527,869.815,532.923Z" fill="#ffdba7" fill-rule="evenodd"/>
            <path id="Path_269" data-name="Path 269" d="M892.474,519.905a2.92,2.92,0,0,1,1.825-.3c.721.015,1.766-.082,1.884-.077a18.141,18.141,0,0,1,1.7.769c.78.953,1.335,1.315.918,1.765-.26.28-.78-.01-1.791-.716l-.618-.2a2.681,2.681,0,0,1,1.173,1,.943.943,0,0,1-.471,1.431c-.191.092-.231-.087-.373-.266l-.378-.469c-.692,0-1.31-.029-2-.073a5.1,5.1,0,0,1,1.835.43c.442.276.26.691.074,1.107-.26.575-1.075-.039-2.488-.024a3.264,3.264,0,0,1,1.59.426c.368.319-.069.7-.437.841a25.222,25.222,0,0,1-5.054,1.252c-.657.077-1.187-.029-1.6.068-1.006.29-2.591.59-3.572.948l-1.109-4.043,4.082-1.17A47.67,47.67,0,0,1,892.474,519.905Z" fill="#0f4283" fill-rule="evenodd"/>
          </g>
        </g>
        <g id="Group_68" data-name="Group 68">
          <path id="Path_270" data-name="Path 270" d="M867.112,492.525l-2.355-3.719c-1.428-2.06-2.615-2.321-3.592-2.152-1.212.208-2.046,1.194-3.6,1.644-1.521.44-2.694,0-4.342.692-1.462.609-1.34,1.427-1.276,3.583l.064,4.812,13.611-3.632Z" fill="#ffa000" fill-rule="evenodd"/>
          <path id="Path_271" data-name="Path 271" d="M853.059,494.977c-1.423.633-5.569,1.92-4.823,3.96.378,1.035,1.963,1.668,5.672.508l10.76-3.375c1.079-.4,8.341-2.079,6.977-4.763-.466-.909-2.129-1.262-5.643-.189Z" fill="#ffa000" fill-rule="evenodd"/>
          <path id="Path_272" data-name="Path 272" d="M866.439,491.466l-.358-.571a27.246,27.246,0,0,1-11.992,3.554c-.3-3.216-.746-4.449.721-5.851a5.3,5.3,0,0,0-1.59.392c-1.462.609-1.34,1.427-1.276,3.583l.039,3.158C854.139,496.776,865.738,493.555,866.439,491.466Z" fill="#f98204" fill-rule="evenodd"/>
        </g>
      </g>
      <path id="Path_273" data-name="Path 273" d="M1033.131,598.022v2.742c.486.092.976.184,1.462.285l1.065-2.529a55.122,55.122,0,0,1,17.536,7.171l-1.065,2.534c.4.256.8.522,1.192.788l1.968-1.939a55.005,55.005,0,0,1,13.429,13.231l-1.968,1.944c.28.4.554.808.829,1.219l2.571-1.049a53.511,53.511,0,0,1,7.262,17.293l-2.571,1.044c.1.464.2.928.28,1.4h2.782a53.833,53.833,0,0,1,0,18.714h-2.782c-.088.484-.186.962-.289,1.441l2.571,1.049a53.682,53.682,0,0,1-7.276,17.283l-2.571-1.049c-.265.4-.535.788-.8,1.18l1.968,1.939a54.833,54.833,0,0,1-13.429,13.231l-1.963-1.934c-.412.276-.824.551-1.241.817l1.065,2.529a55.314,55.314,0,0,1-17.541,7.162l-1.065-2.534q-.707.145-1.413.276V705a56.547,56.547,0,0,1-18.988,0v-2.742c-.491-.087-.981-.184-1.462-.285l-1.07,2.529a55.234,55.234,0,0,1-17.536-7.171l1.06-2.534c-.4-.261-.795-.522-1.192-.788l-1.968,1.934A54.981,54.981,0,0,1,978.55,682.71l1.968-1.939c-.285-.4-.559-.808-.829-1.223l-2.571,1.049a53.518,53.518,0,0,1-7.262-17.293l2.571-1.045q-.147-.7-.28-1.393h-2.782a53.837,53.837,0,0,1,0-18.714h2.782c.088-.484.186-.962.289-1.446l-2.566-1.049a53.36,53.36,0,0,1,7.276-17.283l2.571,1.049c.26-.4.525-.788.8-1.175l-1.968-1.939a55.07,55.07,0,0,1,13.424-13.231l1.968,1.934c.407-.276.819-.546,1.236-.817l-1.06-2.529a55.3,55.3,0,0,1,17.546-7.162l1.06,2.534c.471-.1.942-.189,1.418-.276v-2.742a56.21,56.21,0,0,1,18.988,0Z" fill-rule="evenodd"/>
      <g id="Group_72" data-name="Group 72">
        <path id="Path_274" data-name="Path 274" d="M1023.637,620.648a30.865,30.865,0,1,0,31.314,30.862A31.092,31.092,0,0,0,1023.637,620.648Z" fill="#3d3f40" fill-rule="evenodd"/>
        <path id="Path_275" data-name="Path 275" d="M1023.637,642.675a8.836,8.836,0,1,0,8.959,8.835A8.9,8.9,0,0,0,1023.637,642.675Z" fill-rule="evenodd"/>
        <g id="Group_70" data-name="Group 70">
          <path id="Path_276" data-name="Path 276" d="M1023.637,628.351a3.238,3.238,0,1,0,3.283,3.24A3.26,3.26,0,0,0,1023.637,628.351Z" fill-rule="evenodd"/>
          <path id="Path_277" data-name="Path 277" d="M1023.637,668.2a3.235,3.235,0,1,0,3.283,3.23A3.255,3.255,0,0,0,1023.637,668.2Z" fill-rule="evenodd"/>
        </g>
        <g id="Group_71" data-name="Group 71">
          <path id="Path_278" data-name="Path 278" d="M1047.129,651.51a3.283,3.283,0,1,0-3.282,3.235A3.262,3.262,0,0,0,1047.129,651.51Z" fill-rule="evenodd"/>
          <path id="Path_279" data-name="Path 279" d="M1006.7,651.51a3.283,3.283,0,1,0-3.282,3.235A3.259,3.259,0,0,0,1006.7,651.51Z" fill-rule="evenodd"/>
        </g>
      </g>
      <path id="Path_280" data-name="Path 280" d="M962.1,671.012a66.5,66.5,0,0,1-1.511-14.14c0-37.216,30.558-67.4,68.29-67.5v10.083c-32.084.1-58.06,25.765-58.06,57.415a56.7,56.7,0,0,0,1.781,14.14Z" fill="#072c5e" fill-rule="evenodd"/>
      <path id="Rectangle_8" data-name="Rectangle 8" d="M3.884,0h42.39a3.886,3.886,0,0,1,3.886,3.886V20.307a3.884,3.884,0,0,1-3.884,3.884H3.887A3.887,3.887,0,0,1,0,20.3V3.884A3.884,3.884,0,0,1,3.884,0Z" transform="translate(870.035 580.109)" fill="#041a36"/>
      <path id="Path_281" data-name="Path 281" d="M948.007,604.6l-17.752-53.643L904.667,473.8H773.68l.7,108.529c46.568-15.508,103.038-18.864,105.182,46.791L948.007,604.6Zm-26.927-53.643h-78.4v-68.4h54.071l24.332,68.4Zm-82.524,0H779.73v-68.4h58.825v68.4Zm48.207,5.3h35.6l14.97,40.088H906.3a94.134,94.134,0,0,0-19.533-33.86Z" fill="#0f4283" fill-rule="evenodd"/>
      <path id="Path_282" data-name="Path 282" d="M827.82,558.775v3.738c.672.121,1.335.251,2,.392l1.457-3.458a75.3,75.3,0,0,1,23.92,9.788l-1.452,3.458c.549.348,1.094.711,1.634,1.074l2.679-2.645a74.982,74.982,0,0,1,18.316,18.052l-2.679,2.645c.383.551.761,1.1,1.129,1.664l3.5-1.427a72.951,72.951,0,0,1,9.911,23.584l-3.508,1.431c.137.629.265,1.267.383,1.9h3.8a73.719,73.719,0,0,1,0,25.533h-3.8c-.123.658-.255,1.315-.4,1.968l3.508,1.431a73,73,0,0,1-9.931,23.579l-3.5-1.436c-.358.546-.726,1.078-1.094,1.61l2.679,2.645a74.98,74.98,0,0,1-18.316,18.052l-2.679-2.645c-.559.382-1.119.754-1.693,1.117l1.452,3.453a75.238,75.238,0,0,1-23.934,9.768l-1.452-3.458c-.638.131-1.281.261-1.928.377V704.7a76.918,76.918,0,0,1-25.9,0v-3.738c-.672-.121-1.335-.256-2-.392l-1.452,3.453a75.258,75.258,0,0,1-23.924-9.788L776,690.786c-.55-.353-1.089-.711-1.634-1.078l-2.684,2.645A75.044,75.044,0,0,1,753.367,674.3l2.684-2.645q-.581-.827-1.133-1.668l-3.5,1.431A73.084,73.084,0,0,1,741.5,647.83l3.508-1.427c-.133-.633-.265-1.267-.383-1.9h-3.793a73.719,73.719,0,0,1,0-25.533h3.793c.123-.658.26-1.31.4-1.968l-3.5-1.431a73.208,73.208,0,0,1,9.926-23.579l3.508,1.431c.358-.537.721-1.073,1.094-1.605l-2.684-2.645a75.219,75.219,0,0,1,18.311-18.052l2.689,2.65c.559-.382,1.119-.754,1.688-1.117L774.6,569.2a75.471,75.471,0,0,1,23.934-9.773l1.452,3.462c.638-.135,1.285-.261,1.933-.377v-3.738a76.586,76.586,0,0,1,25.9,0Z" fill-rule="evenodd"/>
      <g id="Group_75" data-name="Group 75">
        <ellipse id="Ellipse_1" data-name="Ellipse 1" cx="48.115" cy="47.42" rx="48.115" ry="47.42" transform="translate(756.952 596.537) rotate(-13.339)" fill="#3d3f40"/>
        <path id="Path_283" data-name="Path 283" d="M814.871,618.162a13.575,13.575,0,1,0,13.773,13.574A13.676,13.676,0,0,0,814.871,618.162Z" fill-rule="evenodd"/>
        <g id="Group_73" data-name="Group 73">
          <path id="Path_284" data-name="Path 284" d="M814.871,596.16a4.972,4.972,0,1,0,5.044,4.971A5.01,5.01,0,0,0,814.871,596.16Z" fill-rule="evenodd"/>
          <path id="Path_285" data-name="Path 285" d="M814.871,657.371a4.974,4.974,0,1,0,5.044,4.971A5.009,5.009,0,0,0,814.871,657.371Z" fill-rule="evenodd"/>
        </g>
        <g id="Group_74" data-name="Group 74">
          <path id="Path_286" data-name="Path 286" d="M850.969,631.741a5.045,5.045,0,1,0-5.044,4.966A5.014,5.014,0,0,0,850.969,631.741Z" fill-rule="evenodd"/>
          <path id="Path_287" data-name="Path 287" d="M788.856,631.741a5.042,5.042,0,1,0-5.039,4.966A5.009,5.009,0,0,0,788.856,631.741Z" fill-rule="evenodd"/>
        </g>
      </g>
      <g id="Group_76" data-name="Group 76">
        <rect id="Rectangle_9" data-name="Rectangle 9" width="85.956" height="9.887" transform="translate(771.901 555.846)" fill="#072c5e"/>
        <path id="Path_288" data-name="Path 288" d="M744.27,580.083l27.621-24.238,7.169,8.772-26.768,23.489Z" fill="#072c5e" fill-rule="evenodd"/>
        <path id="Path_289" data-name="Path 289" d="M885.891,580.083l-28.038-24.238-7.019,8.77,27.173,23.492Z" fill="#072c5e" fill-rule="evenodd"/>
      </g>
    </g>
    <g id="Vector_Smart_Object" data-name="Vector Smart Object" transform="translate(666.721 2063.472)">
      <g id="Group_88" data-name="Group 88">
        <g id="Group_78" data-name="Group 78">
          <rect id="Rectangle_10" data-name="Rectangle 10" width="6.942" height="81.511" transform="translate(422.08 866.152)" fill="#875208"/>
          <path id="Path_290" data-name="Path 290" d="M298.162,1215.474c-2.852-144.181,11.191-220.424,71.827-284.439,43.462-45.882,66.582-47.461,110.285-1.482,61.125,64.323,75.53,141.4,72.663,285.922Z" fill="#f0b81f" fill-rule="evenodd"/>
          <path id="Path_291" data-name="Path 291" d="M349.639,1215.474c-1.7-144.181,6.668-220.424,42.807-284.439,25.9-45.882,39.669-47.461,65.709-1.482,36.425,64.323,45.013,141.4,43.3,285.922Z" fill="#fad320" fill-rule="evenodd"/>
          <path id="Path_292" data-name="Path 292" d="M405.624,1215.474c-.452-144.181,1.746-220.424,11.236-284.439,6.8-45.882,10.416-47.461,17.249-1.482,9.558,64.323,11.816,141.4,11.364,285.922Z" fill="#ffdf4f" fill-rule="evenodd"/>
        </g>
        <path id="Path_293" data-name="Path 293" d="M294,1215.01l6.954,8.176,10.431,9.12c1.069.756,1.37,5.638-.534,5.368l-10.755.8c-3.424.255-7.1-1.018-10.19-2.538-2.25-1.116-4.448-2.972-7.263-4.709l-1.219,2.231-10.137-3.467-.241-6.806c-1.279-7.33,1.663-8.528,2.687-13.627l17.7.374Z" fill="#1f1c1d" fill-rule="evenodd"/>
        <path id="Path_294" data-name="Path 294" d="M213.677,1210.271l-.389,18.174-9.61,10.083-15.713-1.989-.65-13.6,8.441-14.894Z" fill="#1f1c1d" fill-rule="evenodd"/>
        <g id="Group_79" data-name="Group 79">
          <path id="Path_295" data-name="Path 295" d="M219.764,977.336c-2.243-4.792,1.4-12.324,1.656-19.587l-1.475.367c-.309,1.175-.61,2.344-.9,3.519-3.048,12.219-5.208,24.678-7.217,31.656-4.245,14.735-8.406,19.579-12.433,39.795-2.83,14.2-3.545,27.538-4.613,41.921l-.64,48.165q-1.6,45.025-3.01,90.056c8.5,1.123,16.068,2.052,24.64,2.5q4.12-44.272,8.038-88.559c2.085-23.682,3.658-24.888,10.657-51.946,1.422-5.511,4.628-2.508,5.4.614,6.164,24.745,8.978,32.644,15.375,57.345l14.329,84.3c8.384-2.6,12.192-1.715,24.64-3.5-4.455-23.592-6.3-57.225-9.046-83.123-1.144-10.759-3.153-20.216-4.869-30.765-2.438-15.094-3.688-29.589-5.667-43.029-1.641-11.134-4.576-19.983-6.811-32.442l-6.608-33.438C251.381,981.334,232.7,1004.964,219.764,977.336Z" fill="#0f4283" fill-rule="evenodd"/>
          <path id="Path_296" data-name="Path 296" d="M236.509,1072.192c1.377-.292,2.86,1.655,3.357,3.646,6.164,24.745,8.978,32.644,15.375,57.345l14.329,84.3a49.61,49.61,0,0,1,11.515-2.119l-8.625-87.638c-10.815-32.816-14.773-54.6-33.189-84.051Z" fill="#072c5e" fill-rule="evenodd"/>
          <path id="Path_297" data-name="Path 297" d="M211.824,993.291c-4.245,14.735-8.406,19.579-12.433,39.795-2.822,14.2-3.545,27.538-4.613,41.921l-.64,48.165q-1.6,45.025-3.01,90.056c3.5.464,6.856.891,10.183,1.273,2.032-25.195,4.508-56.2,6.42-85.264,2.649-40.281,4.1-76.7,11.342-100.246Z" fill="#072c5e" fill-rule="evenodd"/>
        </g>
        <path id="Path_298" data-name="Path 298" d="M259.787,955.107c15.812-12.174,25.633-16.015,42.544-27.785l8.564,7.637c-17.069,16.592-21.389,24.109-40.467,37.638C248.694,986.456,253.819,960.7,259.787,955.107Z" fill="#f0c17d" fill-rule="evenodd"/>
        <g id="Group_80" data-name="Group 80">
          <path id="Path_299" data-name="Path 299" d="M222.624,904.373c18.311-.344,23.263,6.724,31.278,22.761,6.548,13.08,7.1,16.846,15.436,28.848,4.47,6.222-3.552,30.623-19.981,5.353-9.964-15.341-14.931-27.268-25.874-47.746Z" fill="#f0c17d" fill-rule="evenodd"/>
          <path id="Path_300" data-name="Path 300" d="M222.632,904.373c18.3-.344,23.774,7.27,31.8,23.3,3.831,7.667,7.082,13.769,10.792,19.923l-13.78,16.929c-.647-.981-1.332-2.037-2.085-3.19-9.964-15.341-14.931-27.268-25.874-47.746Z" fill="#ffc300" fill-rule="evenodd"/>
        </g>
        <path id="Path_301" data-name="Path 301" d="M195.3,908.9c-13.893,13.5-25.024,20.837-26.619,28.511-1.738,8.356,6,21.361,14.834,33.61,7.375,10.228,23.94,27.066,27.989,33.116,19.168,28.706,31.172-3.8,50.092-26.452-10.7-16.172-15.059-37.736-19.063-48.24-3.808-9.98-6.442-16.682-14.736-23.413Z" fill="#ffd746" fill-rule="evenodd"/>
        <path id="Path_302" data-name="Path 302" d="M183.557,919.707c-8.045,7.2-13.757,12.369-14.871,17.7-1.738,8.356,6,21.361,14.834,33.61,7.375,10.228,23.94,27.066,27.989,33.116,8.406,12.586,15.436,13.4,22.277,8.438-6.4-10.063-15.5-25.419-19.914-42.49C208.362,948.772,201.634,936,183.557,919.707Z" fill="#ffc300" fill-rule="evenodd"/>
        <path id="Path_303" data-name="Path 303" d="M187.568,916.113c-3.469,3.13-6.623,5.892-9.325,8.416,16.324,8.139,22.525,23.487,27.613,40.251,3.7,12.242-2.973,17.745-9.851,15.858-5.125-1.4-8.527-9.045-13.915-13.949l-.677,1.355c.692,1,1.4,1.992,2.107,2.972,7.375,10.228,15.518,19.931,19.56,25.981,4.613,6.9,7.029,11.912,10.3,17.61,25.287-4.388,41.633,20.343,52.17.12-.542-.3-1-20.253-4.967-36.822-3.831-15.963-10.679-33.513-11.424-36.291a102.442,102.442,0,0,0-15.142-32.247c-1.791-1.063-3.838-2.171-6.216-3.339l-8.933.786c13.517,14.518,14.608,18.538,21.908,42.22,2.506,13.327,2.845,13.9-10.408,19.983-9.513,3.092-7.375-.4-11.6-10.916C211.922,941.061,203.35,929.44,187.568,916.113Z" fill="#0f4283" fill-rule="evenodd"/>
        <path id="Path_304" data-name="Path 304" d="M183.557,919.707c-1.919,1.715-3.7,3.309-5.313,4.822,16.324,8.139,22.525,23.487,27.613,40.251,3.7,12.242-2.973,17.745-9.851,15.858-5.125-1.4-8.527-9.045-13.915-13.949l-.677,1.355c.692,1,1.4,1.992,2.107,2.972,11.469,15.9,19.718,23.645,22.066,43.344,6.668-1.16,8,13.327,13.584,10.969,7.661-16.232-1.332-39.929-5.3-55.248C208.362,948.772,201.634,936,183.557,919.707Z" fill="#072c5e" fill-rule="evenodd"/>
        <path id="Path_305" data-name="Path 305" d="M164.96,949.169c-4.493,12.2-3.6,22.791-3.831,31.267-.181,6.9-.444,10.25,5.14,14.63,16.414,12.878,31.1,19.744,49.031,30.271l5.629-11.006c-13.035-10.984-22.329-19.063-35.169-30.263,2.943-11.291.188-17.49,4.124-26.58C195.471,944.6,174.8,922.455,164.96,949.169Z" fill="#ffdba7" fill-rule="evenodd"/>
        <path id="Path_306" data-name="Path 306" d="M163.975,944.8c-1.5,9.688-2.619,18.845-3.7,25.958l28.169-.427c2.423-7.4,4.659-10.961,6.179-18.965,1.347-7.105,2.928-13.432-7.067-19.31C178.846,926.925,166.135,930.751,163.975,944.8Z" fill="#ffc300" fill-rule="evenodd"/>
        <path id="Path_307" data-name="Path 307" d="M194.033,909.217l.662,8.371c3.53,4.417,21.057,6.709,24.241,1.3-.722-3.931-1.919-7-1.806-16.876L195.5,896.549C196.773,905.728,193.92,902.494,194.033,909.217Z" fill="#f0c17d" fill-rule="evenodd"/>
        <path id="Path_308" data-name="Path 308" d="M228.11,896.542a2.3,2.3,0,0,0,1.565,2.411,1.929,1.929,0,0,1-.82,2.3c-3.748.487-1.866,2.568-1.573,2.538,2.739-.292,2.611.756,2.326,1.707-.707.329-.978.7-.978,1.093.008,1.22,2.642,3.055,1.415,5.421-1.468,2.845-13.509.142-19.123-1.086-4.643-1.026-3.966-4.2-4.591-8.753-2.3.876-4.282.614-5.291-3.04-4.132-3.586-6.036-6.851-9.189-11.291,0,0,2.965-21.443,3.417-21.675s16.264-1.939,16.264-1.939c2.559,2.493,6.231,4.485,8.986,7.442,3.831,4.1,4.6,6.948,5.772,9.06a4.985,4.985,0,0,1,.753,3.841,4.255,4.255,0,0,0-.188,1.58c.9,3.751,5.343,6.154,5.4,7.24C232.287,894.28,230.9,896.182,228.11,896.542Z" fill="#ffdba7" fill-rule="evenodd"/>
        <path id="Path_309" data-name="Path 309" d="M210.229,888.635c.316,1.43-.309,4.365.459,7.2-2.28-1.385-3.086-2.68-4.96-3.818-2.581-1.4-5.727-2.591-7.5-1.3-2.047,1.49.211,5.368,2.8,7.779a5.316,5.316,0,0,1,1.821,4.1c-.2,2.6-2.928,2.126-4.5,5.054-1.279,2.381-3.311,5.473-3.786,7-1.407-3.654-2.205-7.248-5.539-10.228-5.516-4.949-10.8-18.209-5.878-24.116l.263-.449a15,15,0,0,0-1.678,2.074c1.708-4.987,2.017-6.8,6.171-10.28,4.47-12.646,28.124-9.7,32.369-.262-1.889.4-5.193,2.284-8.331,4.762a14.567,14.567,0,0,0-.143,13.589Z" fill="#632404" fill-rule="evenodd"/>
        <path id="Path_310" data-name="Path 310" d="M220.863,871.13l-9.129-8.61c-5.4-4.672-8.835-4.56-11.387-3.392-3.161,1.438-4.726,4.754-8.67,7.1-3.838,2.284-7.368,1.924-11.379,4.979-3.56,2.718-2.634,4.9-.9,10.812l3.65,13.237,34.627-19.676Z" fill="#ffd746" fill-rule="evenodd"/>
        <path id="Path_311" data-name="Path 311" d="M184.189,887.849c-3.432,2.778-13.863,9.254-10.333,14.375,1.776,2.583,6.578,3.212,15.872-2.628l27.01-16.944c2.664-1.857,21.313-11.658,15.639-18.1-1.927-2.186-6.728-1.969-15.571,3.482Z" fill="#ffd746" fill-rule="evenodd"/>
        <path id="Path_312" data-name="Path 312" d="M218.267,868.674l-1.4-1.318c-8.053,8.438-19.477,14.72-30.239,18.306-3.153-8.655-5.261-11.755-2.265-16.667A15.425,15.425,0,0,0,180.3,871.2c-3.56,2.718-2.634,4.9-.9,10.812l2.393,8.685C188.434,892.064,217.845,874.956,218.267,868.674Z" fill="#ffc300" fill-rule="evenodd"/>
        <path id="Path_313" data-name="Path 313" d="M321.146,918.629l-9.829,4.627-.06-.262-14.788,6.432,5.509,15.835,12.215-8.738.083.112c.226.314,13.863,1.213,14.7.157l1.663-2.1c2.792-4.1,6.021-9.187,5.863-10.2L324.525,919.5C323.276,918.973,322.3,917.925,321.146,918.629Z" fill="#ffa000" fill-rule="evenodd"/>
        <path id="Path_314" data-name="Path 314" d="M318.015,928.025c1.9,2.927,1.588,9.142,3.04,9.426,4.154.337,7.375-.195,7.827-.771l1.663-2.1c2.8-4.1,6.028-9.187,5.87-10.205l-8.324-3.107C326.828,920.77,317.277,926.895,318.015,928.025Z" fill="#f98204" fill-rule="evenodd"/>
        <g id="Group_83" data-name="Group 83">
          <path id="Path_315" data-name="Path 315" d="M222.564,1043.463h.008a4.686,4.686,0,0,0,6.39-.367L383.355,870.583l-6.4-6.267L222.2,1037.234A4.353,4.353,0,0,0,222.564,1043.463Z" fill="#875208" fill-rule="evenodd"/>
          <g id="Group_82" data-name="Group 82">
            <g id="Group_81" data-name="Group 81">
              <path id="Path_316" data-name="Path 316" d="M371.186,847.635l29.592,25.232a8.493,8.493,0,0,0,11.883-.913l27.725-32.2a8.346,8.346,0,0,0,1.746-7.57,7.168,7.168,0,0,1-.7.966l-28.787,33.43a7.412,7.412,0,0,1-10.378.794l-25.859-22.05A7.314,7.314,0,0,1,375.6,835l28.787-33.423a8.2,8.2,0,0,1,.858-.839A8.48,8.48,0,0,0,398,803.618l-27.733,32.2A8.366,8.366,0,0,0,371.186,847.635Z" fill="#0f4283" fill-rule="evenodd"/>
              <path id="Path_317" data-name="Path 317" d="M397.2,864.466l30.563-35.474a8.358,8.358,0,0,0,1.746-7.57,7.738,7.738,0,0,1-.7.973L394.523,862.19l2.672,2.276Zm-14.45-12.324-2.679-2.276,30.563-35.482a8.44,8.44,0,0,1,7.24-2.875,7.475,7.475,0,0,0-.85.839Z" fill="#0f4283" fill-rule="evenodd"/>
            </g>
            <path id="Rectangle_11" data-name="Rectangle 11" d="M1.5,0H16.977a1.506,1.506,0,0,1,1.506,1.506v9a1.5,1.5,0,0,1-1.5,1.5H1.5A1.5,1.5,0,0,1,0,10.5v-9A1.5,1.5,0,0,1,1.5,0Z" transform="translate(370.519 868.972) rotate(-49.397)" fill="#0f4283"/>
          </g>
        </g>
        <g id="Group_85" data-name="Group 85">
          <g id="Group_84" data-name="Group 84">
            <path id="Path_318" data-name="Path 318" d="M329.244,926.079h0a2.029,2.029,0,0,0,.775,3.017l2.348,1.385c1.151.674,2.506.779,3.251-.322h0a2.294,2.294,0,0,0-.858-3.242l-2.348-1.378A2.234,2.234,0,0,0,329.244,926.079Z" fill="#ffa000" fill-rule="evenodd"/>
            <path id="Path_319" data-name="Path 319" d="M325.759,934.434h0a1.873,1.873,0,0,0,.519,2.65l1.859,1.086a1.981,1.981,0,0,0,2.664-.517h0a1.874,1.874,0,0,0-.527-2.65l-1.851-1.086A1.971,1.971,0,0,0,325.759,934.434Z" fill="#ffa000" fill-rule="evenodd"/>
            <path id="Path_320" data-name="Path 320" d="M331.426,922.021h0a2.029,2.029,0,0,0,.775,3.017l2.356,1.385c1.151.674,2.506.779,3.251-.329h0a2.287,2.287,0,0,0-.858-3.234l-2.348-1.378A2.243,2.243,0,0,0,331.426,922.021Z" fill="#ffa000" fill-rule="evenodd"/>
            <path id="Path_321" data-name="Path 321" d="M326.82,930.009h0a2.029,2.029,0,0,0,.775,3.017l2.348,1.378c1.151.674,2.506.779,3.259-.322h0a2.285,2.285,0,0,0-.858-3.235l-2.356-1.378A2.222,2.222,0,0,0,326.82,930.009Z" fill="#ffa000" fill-rule="evenodd"/>
          </g>
          <path id="Path_322" data-name="Path 322" d="M316.126,916.562a2.337,2.337,0,0,0-1.031.7l-5.223,5.99,4.207,2.957c.768-.217,3.3-1.438,5.983-4.642l4.756.277c4.516,4.612,4.478,5.705,6.374,4.395a2.155,2.155,0,0,0,.444-3.025l-4.23-5.653-.015.007a1.536,1.536,0,0,0-1.159-.651l-8.783-.517A3.682,3.682,0,0,0,316.126,916.562Z" fill="#ffa000" fill-rule="evenodd"/>
        </g>
        <path id="Path_323" data-name="Path 323" d="M208.806,1002.9c-2.22,7.54-3.168,9.382-7.15,16.165l14.337,7.487c3.507,3.25,7.541,6.364,11.184,9.509,3.71,2.591,6.088,4.305,8.437-.15,2.3,1.318,3.823-.314,4.862-2.321,3,.569,4.523-1.745,4.967-3.759,2.228-.666,5.5-2.1,2.747-5.608-1.769-2.246-5.524-4.4-8.241-6.207.828-5.114-4.945-4.889-8.331-5.3-3.206-.4-6.4-.824-9.633-1.3Z" fill="#ffa000" fill-rule="evenodd"/>
        <g id="Group_86" data-name="Group 86">
          <path id="Path_324" data-name="Path 324" d="M449.989,809.772c2.679,14.937,6.179,30.173,4.771,45.283l-6.5,69.856c-7.082,1.3-16.572,4.036-21.246,3.878s-2.107-4.462-4.327-4.739-3.086,2.853-6.073,3.452-8.361-.217-11.266,0-4.049.861-6.066,1.288-4.049.861-6.073,1.3c-1.008-2.156-.64-6.566-3.033-6.476l-10.837.434c3.229-25.764,10.213-65.393,7.8-91.419-.519-5.615-4.056-11.68-1.738-16.824C399.731,784.024,446.971,792.9,449.989,809.772Z" fill="#ffd746" fill-rule="evenodd"/>
          <path id="Path_325" data-name="Path 325" d="M396.518,929.38l-3.311.711c-1.008-2.156-.64-6.566-3.033-6.476l-10.837.434c3.229-25.764,10.213-65.393,7.8-91.419-.519-5.615-4.056-11.68-1.738-16.824a34.565,34.565,0,0,1,19.537-18.441c-.76,8.9,3.161,17.677,4.771,37.069C412.766,871.452,405.474,895.486,396.518,929.38Z" fill="#ffc300" fill-rule="evenodd"/>
        </g>
        <g id="Group_87" data-name="Group 87">
          <path id="Path_326" data-name="Path 326" d="M438.753,841.645l1.633-1.887a8.346,8.346,0,0,0,1.746-7.57,7.168,7.168,0,0,1-.7.966l-4.245,4.934a3.444,3.444,0,0,0,.12.958,9.53,9.53,0,0,0,1.445,2.6Zm-37.487-36.44,3.123-3.624a7.529,7.529,0,0,1,.858-.839,8.534,8.534,0,0,0-5.976,1.677,5.994,5.994,0,0,0,.361,1.8C399.995,805.115,400.6,805.145,401.267,805.205Z" fill="#0f4283" fill-rule="evenodd"/>
          <path id="Path_327" data-name="Path 327" d="M426.99,829.875l.768-.883a8.362,8.362,0,0,0,1.746-7.57,7.229,7.229,0,0,1-.7.973l-3.522,4.088a15.194,15.194,0,0,0,1.468,3.062l.241.329Zm-19.251-6.753,9.279-10.774a7.475,7.475,0,0,1,.85-.839,8.461,8.461,0,0,0-7.24,2.875l-5.577,6.477a1.693,1.693,0,0,0,.324.681A4.79,4.79,0,0,0,407.739,823.122Z" fill="#0f4283" fill-rule="evenodd"/>
        </g>
      </g>
    </g>
  </g>
</svg>
