<?xml version="1.0" encoding="utf-8"?>
<!-- Generator: Adobe Illustrator 22.1.0, SVG Export Plug-In . SVG Version: 6.00 Build 0)  -->
<svg version="1.1" id="Layer_1" xmlns="http://www.w3.org/2000/svg" xmlns:xlink="http://www.w3.org/1999/xlink" x="0px" y="0px"
	 viewBox="0 0 1320 700" style="enable-background:new 0 0 1320 700;" xml:space="preserve">
<style type="text/css">
	.st0{fill:#5FA391;}
	.st1{fill:#E8A023;}
	.st2{fill:#F3B11C;}
	.st3{fill:#FFC40C;}
	.st4{fill:#F4CF67;}
	.st5{fill:#F9E3AA;}
	.st6{fill:#AAE0F4;}
	.st7{fill:#875422;}
	.st8{fill:#FAD321;}
	.st9{fill:#FEDF50;}
	.st10{fill:#FFEA8B;}
	.st11{fill:#1F1C1E;}
	.st12{fill:#1C4482;}
	.st13{fill:#1C2F5D;}
	.st14{fill:#F0C17D;}
	.st15{fill:#608A3C;}
	.st16{fill:#7DA43F;}
	.st17{fill:#FFDBA7;}
	.st18{fill:#62280E;}
	.st19{fill:#F9A01B;}
	.st20{fill:#F58220;}
	.st21{fill:#FFD846;}
	.st22{fill:#161515;}
</style>
<g id="Group_216" transform="translate(23.997 41.999)">
	<g id="Vector_Smart_Object" transform="translate(-24.003 -406.013)">
		<path id="Path_7_6_" class="st0" d="M1318.9,843.3c-5-0.3-10-0.1-14.9,0.7c-2.9-20.3-20.4-35.9-41.5-35.9
			c-17.1,0-31.8,10.2-38.3,24.7c-10.7-22.4-33.6-37.7-60.1-37.7c-5.6,0-11.1,0.7-16.5,2.1c0.4-3.3,1.9-6.9,0.6-10
			c-14.4-36.7-94.7-73.7-133.6,8c0.7-55.8-38.1-79.9-84.4-69.2c0.5-3.3,0.8-6.8,0.8-10.1c0-36.6-29.9-66.3-66.6-66.3
			c-22.9,0-43,11.4-55,28.9c-14-8.6-30.1-13.1-46.4-13.1c-4.7,0-9.5,0.4-14.1,1.1c-8.3-47-51.1-77.9-95.5-69.1
			c-27.8,5.5-50.9,25.8-61.1,53.7c-14.6,0.7-28.9,5.2-41.6,13c-12-17.6-32.1-29-55-29c-36.8,0-66.6,29.7-66.6,66.3
			c0,3.4,0.3,6.8,0.8,10.1c-46.3-10.6-85.1,13.3-84.4,69.2c-38.9-81.7-119.1-44.6-133.6-8c-1.3,3.1,0.2,6.8,0.6,10
			c-5.4-1.4-10.9-2.1-16.5-2.1c-26.5,0-49.4,15.4-60.1,37.7c-6.6-14.6-21.2-24.7-38.3-24.7c-21.1,0-38.7,15.6-41.5,35.9
			c-25.5-3.8-39.5,5.6-54.1,26.3v153.9"/>
		<g id="Group_4">
			<path id="Path_8" class="st1" d="M1319,771v236.1H2V771C278.9,727.5,1047.6,715.6,1319,771z"/>
			<path id="Path_9" class="st2" d="M1319,858.8v148.5H2V858.8C278.9,815.1,1047.6,803.4,1319,858.8z"/>
			<path id="Path_10" class="st3" d="M1319,946.5v60.7H2v-60.7C278.9,902.9,1047.6,891,1319,946.5z"/>
		</g>
		<path id="Path_11" class="st4" d="M1319,1002.3v60.7H2v-60.7C278.9,958.7,1047.6,946.9,1319,1002.3z"/>
		<path id="Path_12_1_" class="st5" d="M0,1062.9c277-43.6,1045.7-55.4,1317,0"/>
	</g>
	<g id="Vector_Smart_Object-3" transform="translate(-53.21 -239.565)">
		<g id="Group_1">
			<path id="Path_1" class="st6" d="M864.1,297.6c3.5-15.3,19-26.8,37.3-26.8s33.8,11.4,37.3,26.8c6-3,12.5-4.6,19.1-4.6
				c19,0,34.8,12.4,37.6,28.4c14.5,3.8,25.2,15.8,25.2,29.8l0,0c0,17.1-15.9,31.1-35.3,31.1h-168c-19.3,0-35.3-14-35.3-31.1l0,0
				c0-14.1,10.7-26,25.2-29.8C810.2,305.3,826,293,845,293C851.6,293,858.1,294.6,864.1,297.6z"/>
			<path id="Path_2" class="st6" d="M901.3,270.8c18.4,0,33.7,11.4,37.3,26.8c6-3,12.5-4.6,19.1-4.6c19,0,34.8,12.4,37.6,28.4
				c14.5,3.8,25.2,15.8,25.2,29.8l0,0c0,17.1-15.9,31.1-35.3,31.1h-84L901.3,270.8L901.3,270.8z"/>
		</g>
		<g id="Group_2">
			<path id="Path_3" class="st6" d="M430.4,223.8c3.5-15,18.5-26.2,36.4-26.2c18,0,33,11.2,36.4,26.2c5.8-2.9,12.2-4.5,18.7-4.4
				c18.6,0,34,12.1,36.7,27.8c14.2,3.7,24.7,15.4,24.7,29.2l0,0c0,16.7-15.5,30.5-34.4,30.5H384.8c-19,0-34.4-13.7-34.4-30.5l0,0
				c0-13.7,10.5-25.5,24.7-29.2c2.7-15.7,18.2-27.8,36.7-27.8C418.2,219.3,424.6,220.9,430.4,223.8z"/>
			<path id="Path_4" class="st6" d="M466.8,197.6c18,0,33,11.2,36.4,26.2c5.8-2.9,12.2-4.5,18.7-4.4c18.6,0,34,12.1,36.7,27.8
				c14.2,3.7,24.7,15.4,24.7,29.2l0,0c0,16.7-15.5,30.5-34.4,30.5h-82.1L466.8,197.6L466.8,197.6z"/>
		</g>
		<g id="Group_3">
			<path id="Path_5" class="st6" d="M1109.7,248.8c1.9-7.9,9.7-13.8,19.2-13.8s17.3,5.9,19.2,13.8c3-1.6,6.4-2.3,9.7-2.3
				c9.7,0,17.9,6.3,19.2,14.6c7.5,2,13,8.1,13,15.3l0,0c0,8.7-8.2,15.9-18.1,15.9h-86.2c-10,0-18.1-7.2-18.1-15.9l0,0
				c0-7.3,5.5-13.3,13-15.3c1.5-8.2,9.5-14.6,19.2-14.6C1103.4,246.4,1106.7,247.3,1109.7,248.8z"/>
			<path id="Path_6" class="st6" d="M1128.9,235c9.4,0,17.3,5.9,19.2,13.8c3-1.6,6.4-2.3,9.7-2.3c9.7,0,17.9,6.3,19.2,14.6
				c7.5,2,13,8.1,13,15.3l0,0c0,8.7-8.2,15.9-18.1,15.9h-43.1L1128.9,235L1128.9,235z"/>
		</g>
	</g>
	<g id="Vector_Smart_Object-2" transform="translate(-161.241 -455.866)">
		<g id="Group_16">
			<g id="Group_6">
				<rect id="Rectangle_1" x="525.2" y="604.4" class="st7" width="5.5" height="68.9"/>
				<path id="Path_19" class="st8" d="M629.1,899.7c2.3-121.9-8.8-186.3-57-240.5c-34.5-38.8-52.7-40.1-87.4-1.2
					c-48.4,54.4-59.9,119.6-57.6,241.8H629.1z"/>
				<path id="Path_20" class="st9" d="M588.2,899.7c1.4-121.9-5.3-186.3-33.9-240.5c-20.5-38.8-31.4-40.1-52.1-1.2
					c-28.9,54.4-35.7,119.6-34.4,241.8H588.2z"/>
				<path id="Path_21" class="st10" d="M543.8,899.7c0.4-121.9-1.4-186.3-8.9-240.5c-5.4-38.8-8.2-40.1-13.7-1.2
					c-7.6,54.4-9.3,119.6-9,241.8H543.8z"/>
			</g>
			<path id="Path_22" class="st11" d="M632.3,899.2l-5.5,6.9l-8.2,7.7c-0.9,0.6-1.1,4.8,0.4,4.6l8.5,0.7c2.8,0,5.6-0.7,8.1-2.2
				c1.8-0.9,3.5-2.5,5.8-4l1,1.9l8.1-2.9l0.2-5.7c1-6.2-1.3-7.2-2.2-11.5l-14,0.3L632.3,899.2z"/>
			<path id="Path_23" class="st11" d="M695.9,895.3l0.3,15.4l7.7,8.5l12.5-1.7l0.5-11.5l-6.7-12.6L695.9,895.3z"/>
			<g id="Group_7">
				<path id="Path_24" class="st12" d="M691.1,698.4c1.8-4.1-1.1-10.4-1.3-16.5l1.2,0.3c0.3,1,0.5,2,0.7,3
					c2.5,10.3,4.1,20.9,5.7,26.7c3.3,12.5,6.7,16.5,9.8,33.6c2.3,12,2.8,23.3,3.6,35.5l0.5,40.8c0.9,25.4,1.7,50.7,2.4,76.1
					c-6.8,0.9-12.8,1.8-19.5,2.1c-2.2-25-4.3-49.9-6.4-74.9c-1.7-20.1-2.8-21-8.4-43.9c-1.2-4.7-3.6-2.1-4.3,0.5
					c-4.9,20.9-7.1,27.6-12.2,48.5l-11.2,71.3c-6.7-2.2-9.6-1.5-19.5-2.9c3.5-20,5-48.4,7.2-70.3c0.9-9,2.5-17.1,3.8-26
					c2-12.8,2.9-25.1,4.5-36.4c1.3-9.4,3.6-16.8,5.4-27.5l5.2-28.3C666.1,701.8,680.9,721.7,691.1,698.4z"/>
				<path id="Path_25" class="st13" d="M677.9,778.5c-1.1-0.2-2.3,1.5-2.7,3.1c-4.9,20.9-7.1,27.6-12.2,48.5l-11.4,71.3
					c-2.9-0.9-6-1.6-9.1-1.8l6.9-74.1c8.5-27.8,11.7-46.2,26.3-71L677.9,778.5z"/>
				<path id="Path_26" class="st13" d="M697.4,711.9c3.3,12.5,6.7,16.5,9.8,33.6c2.3,12,2.8,23.3,3.6,35.5l0.5,40.8
					c0.9,25.4,1.7,50.7,2.4,76.1c-2.7,0.4-5.4,0.7-8.1,1c-1.6-21.3-3.5-47.5-5.1-72.1c-2.1-34.1-3.2-64.9-9-84.7L697.4,711.9z"/>
			</g>
			<path id="Path_27" class="st14" d="M659.4,679.5c-12.6-10.3-20.3-13.5-33.7-23.5l-6.8,6.4c13.6,14,17,20.4,32.1,31.8
				C668.2,706,664.2,684.3,659.4,679.5z"/>
			<g id="Group_8">
				<path id="Path_28" class="st14" d="M688.9,636.7c-14.5-0.3-18.5,5.7-24.7,19.2c-5.2,11-5.6,14.2-12.3,24.4
					c-3.5,5.3,2.8,25.9,15.8,4.6c7.9-13,11.9-23.1,20.5-40.3L688.9,636.7z"/>
				<path id="Path_29" class="st15" d="M688.9,636.7c-14.5-0.3-18.9,6.1-25.2,19.7c-3,6.4-5.6,11.6-8.5,16.8l10.9,14.3
					c0.5-0.8,1.1-1.8,1.7-2.7c7.9-13,11.9-23.1,20.5-40.3L688.9,636.7z"/>
			</g>
			<path id="Path_30" class="st16" d="M710.6,640.5c11,11.4,19.8,17.6,21.1,24.1c1.4,7.1-4.7,18.1-11.8,28.4
				c-5.9,8.6-19,22.9-22.2,28c-15.2,24.2-24.7-3.2-39.7-22.4c8.4-13.6,12-31.9,15.1-40.8c3-8.4,5.1-14.1,11.7-19.8L710.6,640.5z"/>
			<path id="Path_31" class="st15" d="M719.9,649.6c6.4,6,10.9,10.5,11.8,15c1.4,7.1-4.7,18.1-11.8,28.4c-5.9,8.6-19,22.9-22.2,28
				c-6.7,10.6-12.3,11.3-17.7,7.2c5.1-8.5,12.3-21.5,15.8-35.9C700.2,674.2,705.6,663.4,719.9,649.6z"/>
			<path id="Path_32" class="st12" d="M716.7,646.6c2.7,2.6,5.2,5,7.4,7.1c-13,6.9-17.9,19.9-21.9,34c-2.9,10.4,2.4,15,7.8,13.4
				c4-1.1,6.8-7.7,11-11.7l0.5,1.1c-0.6,0.8-1.1,1.7-1.7,2.5c-5.9,8.6-12.3,16.8-15.5,21.9c-3.6,5.8-5.6,10.1-8.2,14.9
				c-20-3.7-33,17.2-41.3,0.1c0.4-0.2,0.8-17.2,3.9-31.1c3-13.5,8.4-28.3,9-30.7c2.5-9.8,6.6-19,12-27.2c1.4-0.9,3-1.9,4.9-2.8
				l7.1,0.6c-10.7,12.3-11.6,15.7-17.4,35.7c-2,11.2-2.3,11.7,8.2,16.8c7.6,2.6,5.9-0.3,9.2-9.3
				C697.4,667.7,704.2,657.9,716.7,646.6z"/>
			<path id="Path_33" class="st13" d="M719.9,649.6c1.5,1.5,2.9,2.8,4.2,4.1c-13,6.9-17.9,19.9-21.9,34c-2.9,10.4,2.4,15,7.8,13.4
				c4-1.1,6.8-7.7,11-11.7l0.5,1.1c-0.6,0.8-1.1,1.7-1.7,2.5c-9.1,13.4-15.6,20-17.5,36.6c-5.3-0.9-6.4,11.2-10.8,9.3
				c-6.1-13.7,1.1-33.8,4.2-46.7C700.2,674.2,705.6,663.4,719.9,649.6z"/>
			<path id="Path_34" class="st17" d="M734.6,674.5c3.5,10.3,2.8,19.2,3,26.4c0.1,5.8,0.4,8.6-4,12.4c-13,10.9-24.7,16.6-38.9,25.6
				l-4.4-9.3c10.3-9.3,17.7-16.1,27.9-25.6c-2.4-9.6-0.2-14.8-3.2-22.5C710.4,670.7,726.8,652,734.6,674.5z"/>
			<path id="Path_35" class="st15" d="M735.4,670.9c1.2,8.2,2.1,15.9,2.9,21.9l-22.3-0.3c-2-6.2-3.7-9.3-4.9-16
				c-1.1-6-2.4-11.3,5.6-16.3C723.6,655.7,733.7,658.9,735.4,670.9z"/>
			<path id="Path_36" class="st14" d="M711.6,640.7l-0.5,7.1c-2.8,3.7-16.7,5.7-19.2,1.1c1.1-4.7,1.6-9.5,1.5-14.2l17.2-4.6
				C709.4,637.8,711.7,635,711.6,640.7z"/>
			<path id="Path_37" class="st17" d="M684.5,630c0.1,0.9-0.4,1.8-1.3,2.1c-0.3,0.7,0,1.6,0.7,2c2.9,0.4,1.5,2.2,1.3,2.2
				c-2.2-0.2-2.1,0.6-1.9,1.5c0.6,0.3,0.8,0.6,0.8,0.9c0,1-2.1,2.6-1.1,4.6c1.2,2.4,10.7,0.1,15.1-0.9c3.6-0.8,3.1-3.5,3.6-7.4
				c1.9,0.7,3.4,0.5,4.2-2.6c3.2-3,4.8-5.8,7.3-9.6c0,0-2.4-18.1-2.7-18.3c-0.4-0.2-12.9-1.7-12.9-1.7c-2.1,2.1-4.9,3.7-7.2,6.2
				c-3,3.4-3.6,5.8-4.6,7.7c-0.6,0.9-0.8,2.1-0.6,3.2c0.1,0.4,0.2,0.9,0.1,1.4c-0.7,3.1-4.2,5.2-4.3,6.1
				C681.2,628.2,682.3,629.7,684.5,630z"/>
			<path id="Path_38" class="st18" d="M698.7,623.4c-0.3,1.2,0.3,3.6-0.4,6.1c1.8-1.1,2.5-2.3,3.9-3.2c2.1-1.1,4.5-2.2,6-1
				c1.6,1.2-0.2,4.6-2.3,6.6c-1,0.8-1.5,2.2-1.5,3.4c0.2,2.2,2.4,1.8,3.5,4.3c1.1,1.9,2.1,3.8,3,5.9c1.1-3.1,1.8-6.1,4.4-8.6
				c4.4-4.2,8.5-15.4,4.6-20.4l-0.2-0.4c0.5,0.5,1,1.1,1.4,1.8c-1.4-4.3-1.6-5.7-4.9-8.7c-3.5-10.7-22.3-8.2-25.6-0.2
				c1.5,0.3,4.1,2,6.6,4.1c1.8,3.5,1.9,7.9,0.1,11.4L698.7,623.4z"/>
			<path id="Path_39" class="st16" d="M690.2,608.5l7.3-7.3c4.3-4,7-3.8,9-2.9c2.5,1.2,3.7,4.1,6.9,6c3,2,5.8,1.7,9,4.2
				c2.8,2.3,2.1,4.2,0.7,9.2l-2.9,11.2l-27.4-16.6L690.2,608.5z"/>
			<path id="Path_40" class="st16" d="M719.3,622.7c2.7,2.4,11,7.8,8.2,12.2c-1.4,2.2-5.2,2.7-12.6-2.2l-21.4-14.3
				c-2.2-1.6-16.9-9.9-12.4-15.3c1.6-1.9,5.3-1.7,12.4,2.9L719.3,622.7z"/>
			<path id="Path_41" class="st15" d="M692.3,606.5l1.1-1.1c6.4,7.2,15.4,12.5,24,15.5c2.5-7.3,4.1-10,1.8-14.1
				c1.2,0.4,2.3,1,3.2,1.9c2.8,2.3,2.1,4.2,0.7,9.2l-1.9,7.4C716,626.3,692.7,611.8,692.3,606.5z"/>
			<path id="Path_42" class="st19" d="M610.8,648.8l7.8,4v-0.2l11.7,5.4l-4.3,13.4l-9.7-7.4l-0.1,0.1c-0.2,0.3-11,1-11.7,0.1
				l-1.3-1.8c-2.3-3.4-4.8-7.8-4.6-8.6l9.5-4.3C609.1,649,609.9,648.1,610.8,648.8z"/>
			<path id="Path_43" class="st20" d="M613.2,656.7c-1.5,2.5-1.3,7.7-2.5,8c-3.3,0.3-5.9-0.2-6.2-0.6l-1.3-1.8
				c-2.3-3.4-4.8-7.8-4.6-8.6l6.6-2.6C606.3,650.5,613.8,655.7,613.2,656.7z"/>
			<g id="Group_11">
				<path id="Path_44" class="st7" d="M689,754.3L689,754.3c-1.5,1.4-3.7,1.2-5.1-0.3L561.5,608.1l5.1-5.3L689.3,749
					C690.5,750.5,690.4,752.8,689,754.3C689,754.2,689,754.2,689,754.3z"/>
				<g id="Group_10">
					<g id="Group_9">
						<path id="Path_45" class="st12" d="M571.1,588.7L547.6,610c-2.8,2.5-7,2.2-9.4-0.7l-22-27.2c-1.4-1.8-2-4.2-1.4-6.3
							c0.2,0.3,0.4,0.5,0.6,0.8l22.8,28.3c2.1,2.6,5.8,2.9,8.2,0.6l20.5-18.6c2.5-2.2,2.7-6.1,0.6-8.7l-22.8-28.3
							c-0.2-0.2-0.4-0.5-0.7-0.7c2.2-0.2,4.3,0.6,5.7,2.4l22,27.2C574.3,581.7,574,586.2,571.1,588.7z"/>
						<path id="Path_46" class="st12" d="M550.5,602.9l-24.3-30c-1.4-1.8-2-4.2-1.4-6.4c0.2,0.3,0.4,0.5,0.6,0.8l27.2,33.7
							L550.5,602.9L550.5,602.9z M562,592.5l2.2-2l-24.3-29.9c-1.4-1.8-3.5-2.7-5.7-2.4c0.2,0.2,0.5,0.4,0.7,0.7L562,592.5z"/>
					</g>
					<path id="Rectangle_2" class="st12" d="M555.8,600.7l5.4-4.9c0.5-0.4,1.3-0.4,1.7,0.1l0,0l8,9.9c0.4,0.5,0.4,1.4-0.1,1.8l0,0
						l-5.4,4.9c-0.5,0.4-1.3,0.4-1.7-0.1l-8-9.9C555.2,602,555.3,601.1,555.8,600.7z"/>
				</g>
			</g>
			<g id="Group_13">
				<g id="Group_12">
					<path id="Path_47" class="st19" d="M604.4,655L604.4,655c0.5,0.7,0.4,1.9-0.4,2.4c-0.1,0.1-0.2,0.1-0.2,0.1l-1.9,1.1
						c-0.9,0.5-2,0.6-2.6-0.3l0,0c-0.5-0.9-0.3-2.1,0.6-2.7c0,0,0.1,0,0.1-0.1l1.9-1.1C602.6,654,603.7,654.2,604.4,655
						C604.3,655,604.4,655,604.4,655z"/>
					<path id="Path_48" class="st19" d="M607.2,662.1L607.2,662.1c0.5,0.7,0.3,1.7-0.4,2.2l0,0l-1.5,0.9c-0.7,0.5-1.7,0.3-2.2-0.4
						l0,0c-0.5-0.7-0.3-1.7,0.4-2.2l0,0l1.5-0.9C605.8,661.1,606.7,661.3,607.2,662.1z"/>
					<path id="Path_49" class="st19" d="M602.6,651.6L602.6,651.6c0.5,0.7,0.4,1.9-0.4,2.4c-0.1,0.1-0.2,0.1-0.2,0.1l-1.9,1.1
						c-0.9,0.5-2,0.6-2.6-0.3l0,0c-0.5-0.9-0.3-2.1,0.6-2.7c0,0,0.1,0,0.1-0.1l1.9-1.1C600.9,650.5,602,650.7,602.6,651.6
						L602.6,651.6z"/>
					<path id="Path_50" class="st19" d="M606.3,658.3L606.3,658.3c0.5,0.7,0.4,1.9-0.4,2.4c-0.1,0.1-0.2,0.1-0.2,0.1l-1.9,1.1
						c-0.9,0.6-2,0.6-2.6-0.3l0,0c-0.5-0.9-0.3-2.1,0.6-2.7c0,0,0.1,0,0.1-0.1l1.9-1.1C604.6,657.3,605.7,657.5,606.3,658.3
						L606.3,658.3z"/>
				</g>
				<path id="Path_51" class="st19" d="M614.8,647c0.3,0.1,0.6,0.3,0.8,0.6l4.1,5.1l-3.3,2.5c-1.9-0.8-3.5-2.2-4.7-4l-3.7,0.2
					c-3.5,4-3.5,4.8-5.1,3.7c-0.8-0.6-0.9-1.8-0.4-2.6l3.3-4.8l0,0c0.2-0.3,0.6-0.5,0.9-0.5l7-0.4
					C614.1,646.8,614.4,646.9,614.8,647z"/>
			</g>
			<path id="Path_52" class="st19" d="M699.9,720c1.8,6.3,2.6,7.9,5.7,13.6l-11.4,6.3c-2.8,2.7-6,5.4-8.8,8
				c-2.9,2.2-4.8,3.6-6.7-0.1c-1.9,1.1-3-0.3-3.8-2c-2.4,0.5-3.6-1.5-3.9-3.2c-1.8-0.5-4.3-1.8-2.2-4.8c1.4-1.9,4.4-3.7,6.5-5.2
				c-0.7-4.4,3.9-4.2,6.6-4.5c2.6-0.3,5.1-0.7,7.7-1.1L699.9,720z"/>
			<g id="Group_14">
				<path id="Path_53" class="st21" d="M508.6,556.7c-2.2,12.6-4.9,25.5-3.8,38.3l5.1,59.1c5.6,1,13.2,3.4,16.8,3.3
					c3.6-0.1,1.7-3.7,3.4-4.1c1.8-0.3,2.5,2.4,4.8,2.9c2.4,0.5,6.7-0.2,8.9,0c1.7,0.2,3.2,0.5,4.8,1.1c1.6,0.4,3.2,0.7,4.8,1
					c0.8-1.9,0.5-5.5,2.4-5.5l8.5,0.3c-2.6-21.7-8.1-55.3-6.2-77.3c0.4-4.8,3.2-9.9,1.4-14.2C548.5,534.9,511.1,542.4,508.6,556.7z"
					/>
				<path id="Path_54" class="st3" d="M551.1,657.8l2.7,0.6c0.8-1.9,0.5-5.5,2.4-5.5l8.5,0.3c-2.6-21.7-8.1-55.3-6.2-77.3
					c0.4-4.8,3.2-9.9,1.4-14.2c-2.9-7.2-8.5-12.8-15.5-15.6c0.6,7.5-2.6,15-3.7,31.3C538.2,608.8,544,629.1,551.1,657.8z"/>
			</g>
			<g id="Group_15">
				<path id="Path_55" class="st12" d="M517.6,583.7l-1.3-1.6c-1.4-1.8-2-4.2-1.4-6.3c0.2,0.3,0.4,0.5,0.6,0.8l3.3,4.2
					c0,0.3,0,0.5-0.1,0.8C518.5,582.2,518.1,582.9,517.6,583.7L517.6,583.7z M547.2,552.8l-2.5-3c-0.2-0.2-0.4-0.5-0.7-0.7
					c1.7-0.2,3.3,0.3,4.7,1.5c0,0.5-0.1,1-0.3,1.6C548.3,552.8,547.8,552.8,547.2,552.8z"/>
				<path id="Path_56" class="st12" d="M526.9,573.7l-0.6-0.7c-1.4-1.8-2-4.2-1.4-6.4c0.2,0.3,0.4,0.5,0.6,0.8l2.7,3.4
					c-0.3,0.9-0.7,1.8-1.2,2.6L526.9,573.7L526.9,573.7z M542.1,568l-7.4-9.2c-0.2-0.2-0.4-0.5-0.7-0.7c2.2-0.2,4.3,0.6,5.7,2.4
					l4.4,5.5c0,0.2-0.1,0.4-0.3,0.6C543.5,567.2,542.9,567.8,542.1,568L542.1,568z"/>
			</g>
		</g>
		<g id="Group_22">
			<path id="Path_57" class="st16" d="M307.7,585.1c19.3,0,35.2,10.2,35.1,22.8c-0.1,10.3-17.5,19.3-34.9,19.4
				c-17.6,0.1-35.3-9-35.2-19.4C272.9,595.3,288.5,585.1,307.7,585.1z"/>
			<path id="Path_58" class="st14" d="M332,645.7c-1.7,1.2-3.3,2.4-5.1,3.5c-1.4,0.8-1.6,2.5-1.5,4.2c0.1,3.1,1.9,8,2.5,11.6
				l2.3-1.4c0.3-5.9,0.6-4.2-1.5-10l0.6-2C333.4,649.4,332.7,647.6,332,645.7z"/>
			<path id="Path_59" class="st22" d="M330.4,912.7c-7,4.5-18.1,0.7-25,0c-2.4,1.7-6.2,0.5-7.7,0.2c-3.1-0.7-2.6-8.9-1.6-13.9
				c0.8-4.1,0-7.2,0-11.5l13.3-3.6c-0.6,7.3-1.3,9.8,0.5,12.9c3.5,6.3,11.4,6.9,16.5,7.1C334.4,904,335,909.6,330.4,912.7z"/>
			<path id="Path_60" class="st13" d="M285.2,767.1c-2.5-10.5-3-14.6-1.9-21.4c1.5-8.6,4.1-13.8,7.9-21.4l26.9,6.1l2.7,25.2
				l-6.2,54.5l-2.7,87l-18.5,2.1l-3.9-61.2l5.3-28.3C293.6,795.1,288,778.7,285.2,767.1z"/>
			<path id="Path_61" class="st11" d="M313.9,913.5c-7,4.4-18.1,0.3-25-0.6c-2.4,1.6-6.2,0.3-7.7,0c-3.1-0.7-2.6-9-1.6-13.9
				c0.8-4,0-7.2,0-11.5l13.3-3.2c-0.6,7.2-1.3,9.8,0.4,12.9c3.5,6.4,11.4,7.1,16.5,7.5C318,905,318.5,910.6,313.9,913.5z"/>
			<path id="Path_62" class="st12" d="M276,768.3c-4.6-22.8,4-27.2,6.2-44.2l27.5,7.8l0.9,25l-2.9,9.4l-4.6,42.9l-0.3,2.5l-6.8,87.7
				l-18.5,2.1l-1.2-63.6l3.1-29C278.6,794.2,278.3,780.1,276,768.3z"/>
			<path id="Path_63" class="st16" d="M292.2,630.5c-1.3,1.1-2.9,1.7-6.3,3.2c-9.5,4.6-12,7.8-14.6,12.8c-6,11.1,6.1,46.6,10.5,79
				c9.4,12,34.9,9.9,36.6,9.2c4-23.5,9-34.7,10-53.8c0.5-9.9,0.3-19-0.8-26c-1.3-8-1.3-11.7-7.4-16c-2.7-2-5.1-4.4-7-7.3
				C313.5,651,294.2,628.7,292.2,630.5z"/>
			<path id="Path_64" class="st15" d="M310.3,735.3c2.7,0.1,5.5-0.1,8.2-0.6c4-23.5,9-34.7,10-53.8c0.5-9.9,0.3-19-0.8-26
				c-1.3-8-1.3-11.7-7.4-16c-2.7-2-5.1-4.4-7-7.3c0,0.9,0,1.8-0.2,2.7c1.6,15.9,2.8,31.1,2.5,43.9
				C314.7,713.8,311,723.3,310.3,735.3z"/>
			<path id="Path_65" class="st12" d="M290.7,631.5c-1.2,0.6-2.7,1.1-4.8,2.2c-1.3,0.6-2.4,1.1-3.3,1.7
				c10.9,1.1,12.3,15.4,11.5,37.1c-0.6,16.5-2.2,23.2-18.9,17.2c2.5,11.4,5.1,23.8,6.8,35.8c-5.8,21.2,0.7,18.5,7.7,19.7
				c8.8,1.5,28-10.1,28.9-10.5c3.7-21.9,8.3-33.2,9.8-50c-0.7-1.7-0.8-4.1-1-7.9c-0.4-7.5-1-30.7-4.9-36.3c-0.6-0.5-1.3-1-1.9-1.6
				c-2.6-1.9-4.9-4.2-6.7-6.9c7.4,15.2,7.7,27.2,6.8,44.5c-5.9,0.7-10.6,0.6-16.5,0.8C303.1,659.4,304.3,641.6,290.7,631.5z"/>
			<path id="Path_66" class="st13" d="M310.3,735.3c2.7,0.1,5.5-0.1,8.2-0.6c3.7-21.9,8.3-33.2,9.8-50c-0.7-1.7-0.8-4.1-1-7.9
				c-0.4-7.5-1-30.7-4.9-36.3c-0.6-0.5-1.3-1-1.9-1.6c-2.6-1.9-4.9-4.2-6.7-6.9c7.4,15.2,7.7,27.2,6.8,44.5
				c-1.7,0.2-3.2,0.4-4.7,0.4v1.2C314.7,713.8,311,723.3,310.3,735.3z"/>
			<path id="Path_67" class="st14" d="M291.9,630.8c2.9,3,18.1,13,22.5,7.6c-0.3-5.6-0.1-7.2,4-15.3l-10.6-21.4l-12-5.7
				c-2.3,10.7,2.5,20.3,0.4,28.9C295.6,627.4,293.4,629.5,291.9,630.8z"/>
			<g id="Group_17">
				<path id="Path_68" class="st17" d="M268.6,678.6c1,10,3.5,28.1,12,33.2c2.3,1.4,13.3,0.5,9.5-17.4c-0.9-1.5-1.6-0.7,0.6-23.8
					c2-20.9,1.3-31.7-12.2-29.2C262.4,644.7,267.8,670.5,268.6,678.6z"/>
				<path id="Path_69" class="st16" d="M268.2,678.6c6.5-4.5,16.4-2.9,21.8,0.2c0.2-2.4,0.4-5.1,0.8-8.3c2-20.9,1.3-31.7-12.2-29.2
					C262.4,644.7,267.4,670.5,268.2,678.6z"/>
			</g>
			<g id="Group_18">
				<path id="Path_70" class="st17" d="M308,630.3c-0.1,0-0.1,0-0.2,0c-1.4,0.1-2.7,0-4-0.5c-1.1-0.5-1.6-1.6-3-3
					c-1.2-1.2-3.4-2.5-3.9-3.8c-0.7-1.7-0.5-3.4-0.8-5.9c-1.2,0.6-2.4-2.8-2.6-4c-0.4-1.7-1.5-4.5-1.9-6.4c-0.2-1-0.1-2,0.3-2.2
					c0.8-0.6,1.5-0.3,2.6,1.4c0.1-1.4,0.2-2.7,0.1-4.2c-0.2-2.3-0.1-4.7,0.2-7c0.3-2,1.2-3.7,2.6-5l0,0l0,0c0.9-0.8,1.8-1.5,2.8-2
					l0,0c0.1,0,0.1-0.1,0.2-0.1l0.1-0.1c0.1,0,0.1-0.1,0.2-0.1c0.1,0,0.1,0,0.2-0.1c0.1,0,0.1-0.1,0.2-0.1c0,0,0.1,0,0.2-0.1
					c0.1,0,0.1-0.1,0.2-0.1h0.1c0.1,0,0.2-0.1,0.3-0.1l0,0c2.8-1,5.8-1.4,8.7-0.8c2.8,0.4,5.5,1.7,7.8,3.6c1.4,1.2,2.3,3,2.6,5
					c0.3,2.3,0.3,4.7,0.2,7c0,1.5,0,2.9,0.1,4.3c1.1-1.6,1.9-1.9,2.6-1.2c0.4,0.3,0.5,1.1,0.3,2.2c-0.4,1.9-1.5,4.8-1.9,6.4
					c-0.2,1.1-1.5,4.5-2.6,4c-0.3,2.3-0.1,4.1-0.8,5.7c-0.5,1.4-2.7,2.7-3.9,4c-1.5,1.5-2,2.6-2.9,3.1
					C310.7,630.2,309.3,630.5,308,630.3z"/>
				<path id="Path_71" class="st18" d="M298.4,592.5c-1,1.1-3.3,9.3-3,17.1c-3.2-12.2-5-20.8,2.1-26.2c9.2-7.2,20.3-2.6,21.2,0.2
					c7.4,2.7,4.4,14.8,2.4,24.3c-0.1-4.8-1.1-10.8-3.3-15c-0.6-0.5-2.9,2.6-3.5,2.6C308.6,595.1,306.7,594,298.4,592.5z"/>
			</g>
			<path id="Path_72" class="st7" d="M330,633.4L330,633.4c2.1-0.1,3.7,1.5,3.9,3.6l15.5,223l-7.4,0.6l-15.5-223.1
				C326.5,635.3,327.9,633.5,330,633.4z"/>
			<path id="Path_73" class="st19" d="M332,645.7c-1.7,1.2-3.3,2.4-5.1,3.5c-1.4,0.8-2.1,2.5-1.5,4.2l2.7,6.8
				c0.3-5.9,0.1-5.8,0.3-6.6l0.9-1.9C333.4,649.4,332.7,647.6,332,645.7z"/>
			<path id="Path_74" class="st19" d="M332.5,648.7c-1.1,0.8-2.6,2.1-3.5,2.8c-1,0.6-1.3,2.4-0.7,3c0.5,0.5,1.9,0.2,3.7-1.1
				c-2.4,2-2.5,2.3-2.3,3.1c0.4,1.1,1.1,1.4,3,0.7l-1.6,1.4c-0.8,0.6-0.9,1.9-0.3,2.7c0.4,0.4,0.9,0.7,1.4,0.7l2.9-1.8l-2,1.7
				c-0.8,0.6-0.7,4.7,4,1.6c2-1.4,3.3-2.1,4.1-3.3c1-1.6,1.4-3,0.3-4.5c0-1.9,0.2-2.3-1.4-3.5c-0.3-1.7-0.6-2.8-2.2-3.4
				C337.6,645.3,335.8,646.3,332.5,648.7z"/>
			<g id="Group_19">
				<path id="Path_75" class="st17" d="M278.8,710.7c13.7,9.8,29.3,12.3,44.4,20.3c2.5-5,2.7-6,4.6-8.1c0,0-26.5-19.4-37.6-28.7
					C282.1,687.4,269.6,703.9,278.8,710.7z"/>
				<path id="Path_76" class="st19" d="M341.9,725.1c2.3,0.8,2.2,1,3.8,2.6c1.3,1.2,3.3,2.9,3.5,3.1c0.3,0.3,1.8,4.5,1.8,4.5
					c-0.2,3.2,0.2,4.9-1.4,5.1c-0.9,0.1-1.4-1.4-2.1-4.6l-0.8-1.5c0.4,1.6,0.8,2.7,0.4,4.1c-0.2,1.4-1.4,2.3-2.7,2.1
					c-0.2,0-0.4-0.1-0.6-0.2c-0.5-0.2-0.3-0.6-0.2-1.1l0.1-1.6c-1.3-1.2-2.4-2.4-3.5-3.6c1.5,1.9,2.4,3.1,2.6,4.1
					c0.3,1.4-0.7,1.8-1.8,2.3c-1.5,0.6-1.9-2-4.4-4.5c0.8,0.9,2,2.3,2.2,3.6c0.1,1.2-1.3,1.2-2.2,0.8c-3.9-1.8-7.8-3.8-11.3-6.4
					c-1.3-1-2.1-2.2-3-2.7c-2.3-1.2-5.8-2.5-8.2-3.5l5.7-12.2l8.5,6.3C330,721.7,340.6,724.7,341.9,725.1z"/>
			</g>
			<path id="Path_77" class="st16" d="M299.9,575.6h15.6c3.5,0,6.6,2.6,7.4,6.2l1.7,6.8c-9.7-3-26.7-1.7-33.6-0.2l1.7-6.6
				C293.3,578.2,296.4,575.6,299.9,575.6z"/>
			<path id="Path_78" class="st15" d="M307.7,585.1c19.3,0,35.1,10.2,35.1,22.8c0,1.4-0.2,2.7-0.6,4.1c4-32.2-72.2-31.7-68.9,0
				c-0.4-1.4-0.6-2.7-0.6-4.1C272.7,595.3,288.5,585.1,307.7,585.1z"/>
			<g id="Group_21">
				<g id="Group_20">
					<path id="Path_79" class="st12" d="M330.4,868.6l31.8-2.5c3.8-0.3,7.1,2.7,7.4,6.8l2.6,36.9c0.2,2.4-0.8,4.7-2.6,6.2
						c0-0.3,0-0.7,0-1l-2.7-38.4c-0.3-3.5-3.1-6.1-6.5-5.9l-27.8,2.2c-3.3,0.3-5.8,3.3-5.6,6.9l2.7,38.4c0,0.3,0.1,0.7,0.2,1
						c-2-1.2-3.2-3.3-3.3-5.7l-2.6-36.9C323.7,872.4,326.6,869,330.4,868.6z"/>
					<path id="Path_80" class="st12" d="M355.7,870.2l2.8,40.8c0.2,2.4-0.8,4.7-2.6,6.2c0-0.3,0-0.7,0-1l-3.1-45.6L355.7,870.2
						L355.7,870.2z M340.2,871.4l3.1,45.6c0,0.3,0.1,0.7,0.2,1c-2-1.2-3.2-3.3-3.3-5.7l-2.8-40.8L340.2,871.4z"/>
				</g>
				<path id="Rectangle_3" class="st12" d="M341.6,853.2l7.4-0.6c0.7-0.1,1.3,0.5,1.3,1.2l0,0l0.9,13.4c0.1,0.7-0.5,1.4-1.2,1.4l0,0
					l-7.4,0.6c-0.7,0.1-1.3-0.5-1.3-1.2l-0.9-13.4C340.4,853.8,340.9,853.2,341.6,853.2z"/>
			</g>
		</g>
	</g>
</g>
</svg>
