<svg xmlns="http://www.w3.org/2000/svg" width="1341" height="1008" viewBox="0 0 1341 1008">
  <g id="Group_61" data-name="Group 61" transform="translate(24.997)">
    <g id="Group_8" data-name="Group 8" transform="translate(-1 292)">
      <g id="Group_60" data-name="Group 60">
        <g id="Group_10" data-name="Group 10">
          <g id="Vector_Smart_Object1" data-name="Vector Smart Object1" transform="translate(-24.003 -368.004)">
            <path id="Path_7" data-name="Path 7" d="M334.837,659.047c-15.953,0-28.885,12.16-28.885,27.164a25.866,25.866,0,0,0,.333,4.148C286.228,686,269.4,695.823,269.7,718.694c-16.886-33.459-51.666-18.267-57.947-3.257-.536,1.288.091,2.748.257,4.089a30.827,30.827,0,0,0-7.166-.842,29.083,29.083,0,0,0-26.069,15.455A18.3,18.3,0,0,0,162.148,724c-9.178,0-16.768,6.381-18.028,14.682-11.034-1.589-17.1,2.281-23.425,10.743v63.017c19.589,10.5,39.474,55.74,39.474,51.995,0-4.524,0-.172-.005-.258,1.025.166-.338.258,3.143.258s11.125-2.63,14.456-6.708c2.784,12.267,13.619-.971,28.247-.971s20.421,25.893,21.3,11.634c4.7,2.007,5.75,3.129,15.438,3.129s25.967-7.105,32.415-17.65c5.214,7.094,10.878,11.747,23.789,11.747s67.742,38.149,67.742,29.939-.113-2.8-.333-4.148c.322.011-.483.016.966.016s3.9,77.619,6.276,77.023c4.908,14.564,16.441-19.169,29.609-19.169S413,856.164,414.873,843.419c3.057,24.895,3.98,47.793,18.484,47.793s24.7,33.733,29.615,19.169a39.248,39.248,0,0,0,7.44.912c1.443,0,.638-.011.96-.021-.22,1.352-.333-4.052-.333,4.154s46.7-49.719,59.6-49.719,18.576-4.647,23.784-11.747c6.448,10.55,22.733,17.655,32.42,17.655s10.733-1.122,15.438-3.129c.874,14.258,6.667-11.634,21.3-11.634s25.463,13.233,28.247.971c3.331,4.073,10.975,6.7,14.456,6.7s2.119-.086,3.143-.252c-.005.081-.005-3.982-.005.252,0,3.29,10.1,10.722,22.529,18.181v-138.4a31.909,31.909,0,0,0-6.48.279c-1.261-8.3-8.851-14.682-18.028-14.682a18.3,18.3,0,0,0-16.628,10.137,29.081,29.081,0,0,0-26.074-15.45,30.522,30.522,0,0,0-7.161.843c.166-1.342.794-2.807.257-4.095-6.281-15-41.061-30.2-57.953,3.263.3-22.877-16.521-32.7-36.582-28.34a25.821,25.821,0,0,0,.338-4.148c0-15-12.933-27.164-28.885-27.164A29.39,29.39,0,0,0,470.9,676.8a39.969,39.969,0,0,0-20.1-5.35,40.742,40.742,0,0,0-6.152.461,35.463,35.463,0,0,0-67.9-6.316,39.783,39.783,0,0,0-18.055,5.3A29.4,29.4,0,0,0,334.837,659.047Z" fill="#5fa391" fill-rule="evenodd"/>
            <g id="land">
              <path id="Path_8" data-name="Path 8" d="M1341.005,755.062V982.043H.005V755.062C281.964,713.172,1064.722,701.823,1341.005,755.062Z" fill="#e89f00" fill-rule="evenodd"/>
              <path id="Path_9" data-name="Path 9" d="M1341.005,839.346v142.7H.005v-142.7C281.964,797.456,1064.722,786.107,1341.005,839.346Z" fill="#f4b100" fill-rule="evenodd"/>
              <path id="Path_10" data-name="Path 10" d="M1341.005,923.63v58.413H.005V923.63C281.964,881.74,1064.722,870.39,1341.005,923.63Z" fill="#ffc300" fill-rule="evenodd"/>
            </g>
            <path id="Path_11" data-name="Path 11" d="M1341.005,977.294v58.413H.005V977.294C281.964,935.4,1064.722,924.054,1341.005,977.294Z" fill="#f4cf67" fill-rule="evenodd"/>
            <path id="Path_12" data-name="Path 12" d="M1341.005,1025.591V1084H.005v-58.413C281.964,983.7,1064.722,972.351,1341.005,1025.591Z" fill="#f9e3aa" fill-rule="evenodd"/>
          </g>
          <g id="Vector_Smart_Object" data-name="Vector Smart Object" transform="translate(-133.403 -370.636)">
            <g id="Group_16" data-name="Group 16">
              <g id="Group_6" data-name="Group 6">
                <rect id="Rectangle_1" data-name="Rectangle 1" width="5.018" height="59.48" transform="translate(475.102 535.904)" fill="#875208"/>
                <path id="Path_19" data-name="Path 19" d="M569.716,790.813c2.063-105.211-8.092-160.851-51.934-207.567-31.422-33.476-48.137-34.634-79.735-1.075-44.193,46.932-54.606,103.176-52.539,208.642Z" fill="#fad320" fill-rule="evenodd"/>
                <path id="Path_20" data-name="Path 20" d="M532.494,790.813c1.232-105.211-4.818-160.851-30.946-207.567-18.724-33.476-28.682-34.634-47.51-1.075C427.7,629.1,421.5,685.347,422.727,790.813Z" fill="#ffdf4f" fill-rule="evenodd"/>
                <path id="Path_21" data-name="Path 21" d="M492.019,790.813c.322-105.211-1.264-160.851-8.121-207.567-4.918-33.476-7.533-34.634-12.473-1.075-6.913,46.932-8.543,103.176-8.221,208.642Z" fill="#ffea8c" fill-rule="evenodd"/>
              </g>
              <path id="Path_22" data-name="Path 22" d="M572.725,790.475l-5.033,5.964-7.533,6.658c-.777.55-1,4.111.383,3.917l7.773.586a14.89,14.89,0,0,0,7.368-1.856c1.63-.809,3.217-2.169,5.248-3.431l.885,1.626,7.325-2.532.179-4.967c.921-5.349-1.2-6.223-1.941-9.938l-12.8.27Z" fill="#1f1c1d" fill-rule="evenodd"/>
              <path id="Path_23" data-name="Path 23" d="M630.8,787.016l.283,13.263,6.946,7.357,11.36-1.454.47-9.927-6.1-10.864Z" fill="#1f1c1d" fill-rule="evenodd"/>
              <g id="Group_7" data-name="Group 7">
                <path id="Path_24" data-name="Path 24" d="M626.4,617.035c1.623-3.5-1.01-9-1.2-14.287l1.071.266q.339,1.279.656,2.568c2.2,8.909,3.761,18.006,5.212,23.1,3.07,10.747,6.082,14.283,8.991,29.034,2.045,10.366,2.565,20.1,3.331,30.588l.466,35.152q1.161,32.863,2.181,65.714c-6.147.82-11.624,1.5-17.817,1.824q-2.977-32.3-5.817-64.621c-1.5-17.283-2.64-18.164-7.7-37.907-1.032-4.025-3.346-1.831-3.908.45-4.456,18.053-6.491,23.818-11.115,41.839l-10.363,61.52c-6.061-1.9-8.812-1.252-17.818-2.557,3.224-17.218,4.557-41.759,6.545-60.657.827-7.852,2.282-14.751,3.518-22.452,1.77-11.014,2.669-21.592,4.1-31.4,1.186-8.122,3.306-14.578,4.925-23.674l4.779-24.4C603.535,619.952,617.043,637.192,626.4,617.035Z" fill="#0f4283" fill-rule="evenodd"/>
                <path id="Path_25" data-name="Path 25" d="M614.292,686.253c-1-.209-2.07,1.212-2.429,2.665-4.456,18.053-6.491,23.818-11.115,41.839l-10.363,61.52a35.279,35.279,0,0,0-8.325-1.547l6.236-63.952c7.82-23.948,10.682-39.846,24-61.333Z" fill="#072c5e" fill-rule="evenodd"/>
                <path id="Path_26" data-name="Path 26" d="M632.134,628.686c3.07,10.747,6.082,14.283,8.991,29.034,2.042,10.366,2.565,20.1,3.331,30.588l.466,35.152q1.161,32.863,2.181,65.714c-2.536.338-4.958.655-7.365.928-1.472-18.387-3.26-41.008-4.642-62.218-1.917-29.393-2.962-55.974-8.2-73.153Z" fill="#072c5e" fill-rule="evenodd"/>
              </g>
              <path id="Path_27" data-name="Path 27" d="M597.463,600.817c-11.438-8.881-18.534-11.69-30.767-20.272l-6.186,5.564c12.337,12.111,15.464,17.592,29.259,27.473C605.48,623.693,601.776,604.9,597.463,600.817Z" fill="#f0c17d" fill-rule="evenodd"/>
              <g id="Group_8-2" data-name="Group 8">
                <path id="Path_28" data-name="Path 28" d="M624.329,563.791c-13.24-.252-16.818,4.913-22.614,16.61-4.732,9.546-5.137,12.294-11.162,21.052C587.322,606,593.125,623.8,605,605.364c7.2-11.2,10.8-19.9,18.706-34.843Z" fill="#f0c17d" fill-rule="evenodd"/>
                <path id="Path_29" data-name="Path 29" d="M624.325,563.791c-13.236-.252-17.191,5.309-22.99,17.006-2.773,5.6-5.122,10.05-7.805,14.542l9.962,12.352c.469-.719.967-1.489,1.508-2.327,7.2-11.193,10.8-19.9,18.709-34.843Z" fill="#608913" fill-rule="evenodd"/>
              </g>
              <path id="Path_30" data-name="Path 30" d="M644.081,567.093c10.048,9.848,18.09,15.207,19.243,20.8,1.257,6.1-4.334,15.589-10.725,24.527-5.33,7.46-17.309,19.75-20.232,24.167-13.863,20.948-22.542-2.777-36.222-19.3,7.741-11.8,10.89-27.534,13.788-35.2,2.751-7.287,4.657-12.175,10.653-17.089Z" fill="#7da427" fill-rule="evenodd"/>
              <path id="Path_31" data-name="Path 31" d="M652.574,574.985c5.817,5.248,9.948,9.021,10.75,12.913,1.257,6.1-4.334,15.589-10.725,24.527-5.33,7.46-17.309,19.75-20.232,24.167-6.079,9.186-11.162,9.78-16.105,6.158,4.625-7.345,11.2-18.549,14.393-31.008C634.642,596.192,639.5,586.876,652.574,574.985Z" fill="#608913" fill-rule="evenodd"/>
              <path id="Path_32" data-name="Path 32" d="M649.672,572.359c2.511,2.288,4.789,4.3,6.745,6.14-11.8,5.942-16.292,17.143-19.963,29.379-2.683,8.931,2.146,12.945,7.118,11.571,3.7-1.025,6.165-6.607,10.059-10.183l.491.993c-.5.727-1.007,1.446-1.522,2.169-5.33,7.456-11.219,14.542-14.142,18.959-3.331,5.032-5.076,8.69-7.444,12.848-18.283-3.2-30.1,14.844-37.72.086.383-.216.716-14.779,3.589-26.872,2.769-11.639,7.719-24.448,8.26-26.484a75.113,75.113,0,0,1,10.943-23.527c1.3-.777,2.783-1.583,4.5-2.439l6.459.579c-9.772,10.586-10.564,13.521-15.84,30.807-1.813,9.726-2.056,10.147,7.522,14.582,6.885,2.259,5.334-.3,8.389-7.971C632.066,590.566,638.263,582.085,649.672,572.359Z" fill="#0f4283" fill-rule="evenodd"/>
              <path id="Path_33" data-name="Path 33" d="M652.574,574.985c1.386,1.248,2.672,2.414,3.844,3.514-11.8,5.942-16.292,17.143-19.963,29.379-2.683,8.931,2.146,12.945,7.118,11.571,3.7-1.025,6.165-6.607,10.059-10.183l.491.993c-.5.727-1.007,1.446-1.522,2.169-8.289,11.6-14.257,17.25-15.951,31.627-4.818-.845-5.785,9.722-9.822,8-5.538-11.841.964-29.134,3.829-40.317C634.642,596.2,639.5,586.876,652.574,574.985Z" fill="#072c5e" fill-rule="evenodd"/>
              <path id="Path_34" data-name="Path 34" d="M666.021,596.487c3.249,8.9,2.6,16.625,2.765,22.815.133,5.036.322,7.474-3.715,10.672-11.86,9.395-22.481,14.405-35.449,22.092l-4.069-8.032c9.425-8.017,16.141-13.913,25.426-22.088-2.131-8.237-.136-12.762-2.98-19.391C643.962,593.149,658.9,576.988,666.021,596.487Z" fill="#ffdba7" fill-rule="evenodd"/>
              <path id="Path_35" data-name="Path 35" d="M666.734,593.3c1.078,7.068,1.891,13.751,2.669,18.941l-20.364-.313c-1.755-5.4-3.371-8-4.467-13.841-.974-5.187-2.117-9.8,5.1-14.089C655.984,580.25,665.172,583.045,666.734,593.3Z" fill="#608913" fill-rule="evenodd"/>
              <path id="Path_36" data-name="Path 36" d="M645,567.331l-.48,6.1c-2.554,3.226-15.228,4.9-17.524.953a45.349,45.349,0,0,0,1.3-12.319l15.636-3.985C643.024,564.784,645.084,562.421,645,567.331Z" fill="#f0c17d" fill-rule="evenodd"/>
              <path id="Path_37" data-name="Path 37" d="M620.363,558.076a1.678,1.678,0,0,1-1.132,1.759,1.406,1.406,0,0,0,.591,1.676c2.712.36,1.347,1.881,1.136,1.86-1.977-.216-1.884.55-1.684,1.241.519.241.709.518.709.8,0,.888-1.9,2.226-1.024,3.953,1.06,2.079,9.776.1,13.827-.795,3.356-.748,2.869-3.057,3.321-6.384,1.659.64,3.1.446,3.826-2.216,2.991-2.619,4.363-5,6.648-8.244,0,0-2.146-15.643-2.475-15.815s-11.757-1.41-11.757-1.41c-1.852,1.816-4.5,3.27-6.5,5.428-2.765,2.993-3.321,5.068-4.173,6.611a3.665,3.665,0,0,0-.537,2.8,3.226,3.226,0,0,1,.133,1.155c-.648,2.737-3.862,4.489-3.9,5.284C617.34,556.429,618.347,557.817,620.363,558.076Z" fill="#ffdba7" fill-rule="evenodd"/>
              <path id="Path_38" data-name="Path 38" d="M633.288,552.31c-.226,1.039.229,3.183-.326,5.251,1.644-1.011,2.228-1.957,3.582-2.791,1.87-1.018,4.141-1.888,5.427-.942,1.476,1.086-.154,3.917-2.027,5.679a3.9,3.9,0,0,0-1.318,2.989c.15,1.9,2.124,1.55,3.256,3.683a51.035,51.035,0,0,1,2.74,5.111c1.014-2.669,1.59-5.287,4-7.467,3.99-3.608,7.809-13.283,4.248-17.6l-.186-.327a10.908,10.908,0,0,1,1.211,1.514c-1.236-3.64-1.454-4.964-4.463-7.5-3.231-9.229-20.329-7.079-23.4-.191a18.154,18.154,0,0,1,6.022,3.471,10.711,10.711,0,0,1,.1,9.916Z" fill="#632404" fill-rule="evenodd"/>
              <path id="Path_39" data-name="Path 39" d="M625.6,539.534l6.6-6.284c3.9-3.41,6.387-3.323,8.235-2.475,2.282,1.047,3.414,3.471,6.265,5.183,2.776,1.665,5.327,1.4,8.228,3.633,2.572,1.978,1.9,3.579.652,7.888l-2.644,9.661-25.032-14.362Z" fill="#7da427" fill-rule="evenodd"/>
              <path id="Path_40" data-name="Path 40" d="M652.119,551.738c2.482,2.021,10.019,6.751,7.472,10.485-1.29,1.885-4.757,2.345-11.481-1.914l-19.526-12.366c-1.927-1.352-15.414-8.5-11.305-13.211,1.39-1.593,4.861-1.439,11.255,2.543Z" fill="#7da427" fill-rule="evenodd"/>
              <path id="Path_41" data-name="Path 41" d="M627.481,537.747l1.014-.968c5.817,6.161,14.081,10.74,21.862,13.366,2.275-6.32,3.8-8.582,1.633-12.168a11.133,11.133,0,0,1,2.941,1.615c2.572,1.978,1.9,3.579.652,7.888l-1.734,6.338C649.049,554.814,627.786,542.325,627.481,537.747Z" fill="#608913" fill-rule="evenodd"/>
              <path id="Path_42" data-name="Path 42" d="M553.1,574.2l7.107,3.374.043-.191,10.693,4.694-3.983,11.553-8.834-6.374-.057.079c-.165.23-10.026.888-10.628.119l-1.2-1.532c-2.024-3-4.359-6.7-4.245-7.445l8.662-3.64C551.561,574.449,552.26,573.683,553.1,574.2Z" fill="#ffa000" fill-rule="evenodd"/>
              <path id="Path_43" data-name="Path 43" d="M555.359,581.056c-1.379,2.133-1.15,6.669-2.2,6.877-3,.248-5.334-.144-5.66-.561l-1.2-1.532c-2.024-3-4.359-6.7-4.245-7.445l6.014-2.27C548.986,575.762,555.892,580.229,555.359,581.056Z" fill="#f98204" fill-rule="evenodd"/>
              <g id="Group_11" data-name="Group 11">
                <path id="Path_44" data-name="Path 44" d="M624.368,665.291h0a3.365,3.365,0,0,1-4.621-.266L508.117,539.139l4.625-4.572L624.633,660.744A3.191,3.191,0,0,1,624.368,665.291Z" fill="#875208" fill-rule="evenodd"/>
                <g id="Group_10-2" data-name="Group 10">
                  <g id="Group_9" data-name="Group 9">
                    <path id="Path_45" data-name="Path 45" d="M516.919,522.392l-21.4,18.409a6.1,6.1,0,0,1-8.59-.665L466.884,516.64a6.137,6.137,0,0,1-1.265-5.518,5.94,5.94,0,0,0,.509.7l20.816,24.39a5.319,5.319,0,0,0,7.5.579l18.7-16.085a5.376,5.376,0,0,0,.58-7.535l-20.816-24.39a4.923,4.923,0,0,0-.613-.611,6.086,6.086,0,0,1,5.237,2.1l20.049,23.495A6.156,6.156,0,0,1,516.919,522.392Z" fill="#0f4283" fill-rule="evenodd"/>
                    <path id="Path_46" data-name="Path 46" d="M498.113,534.678l-22.1-25.894a6.138,6.138,0,0,1-1.261-5.521,5.062,5.062,0,0,0,.505.7l24.785,29.044-1.931,1.665Zm10.449-9,1.934-1.662-22.1-25.894a6.074,6.074,0,0,0-5.237-2.1,4.716,4.716,0,0,1,.616.611Z" fill="#0f4283" fill-rule="evenodd"/>
                  </g>
                  <path id="Rectangle_2" data-name="Rectangle 2" d="M1.093,0H7.632A1.094,1.094,0,0,1,8.726,1.094V12.322a1.094,1.094,0,0,1-1.094,1.094H1.094A1.094,1.094,0,0,1,0,12.323V1.093A1.093,1.093,0,0,1,1.093,0Z" transform="translate(502.079 533.474) rotate(-40.579)" fill="#0f4283"/>
                </g>
              </g>
              <g id="Group_13" data-name="Group 13">
                <g id="Group_12" data-name="Group 12">
                  <path id="Path_47" data-name="Path 47" d="M547.245,579.635h0a1.49,1.49,0,0,1-.562,2.2l-1.7,1.007a1.656,1.656,0,0,1-2.353-.234h0a1.681,1.681,0,0,1,.62-2.363l1.7-1.007A1.606,1.606,0,0,1,547.245,579.635Z" fill="#ffa000" fill-rule="evenodd"/>
                  <path id="Path_48" data-name="Path 48" d="M549.763,585.729h0a1.376,1.376,0,0,1-.376,1.935l-1.343.791a1.42,1.42,0,0,1-1.927-.374h0a1.373,1.373,0,0,1,.38-1.935l1.34-.795A1.42,1.42,0,0,1,549.763,585.729Z" fill="#ffa000" fill-rule="evenodd"/>
                  <path id="Path_49" data-name="Path 49" d="M545.662,576.675h0a1.486,1.486,0,0,1-.559,2.2l-1.7,1.007a1.66,1.66,0,0,1-2.353-.237h0a1.678,1.678,0,0,1,.62-2.36l1.7-1.007A1.6,1.6,0,0,1,545.662,576.675Z" fill="#ffa000" fill-rule="evenodd"/>
                  <path id="Path_50" data-name="Path 50" d="M548.993,582.5h0a1.49,1.49,0,0,1-.559,2.2l-1.7,1a1.649,1.649,0,0,1-2.35-.234h0a1.675,1.675,0,0,1,.62-2.359l1.7-1.007A1.608,1.608,0,0,1,548.993,582.5Z" fill="#ffa000" fill-rule="evenodd"/>
                </g>
                <path id="Path_51" data-name="Path 51" d="M556.727,572.693a1.67,1.67,0,0,1,.745.507l3.772,4.374-3.038,2.154a10.446,10.446,0,0,1-4.324-3.385l-3.439.2c-3.267,3.367-3.242,4.165-4.614,3.208a1.589,1.589,0,0,1-.319-2.208l3.059-4.122h.011a1.121,1.121,0,0,1,.835-.471l6.351-.378A2.486,2.486,0,0,1,556.727,572.693Z" fill="#ffa000" fill-rule="evenodd"/>
              </g>
              <path id="Path_52" data-name="Path 52" d="M634.319,635.689c1.6,5.5,2.289,6.848,5.169,11.8l-10.367,5.46c-2.533,2.37-5.452,4.647-8.081,6.942-2.683,1.885-4.406,3.133-6.1-.112-1.666.96-2.765-.23-3.518-1.694-2.171.414-3.274-1.27-3.593-2.744-1.608-.489-3.98-1.536-1.981-4.093,1.275-1.637,3.99-3.2,5.953-4.528-.6-3.734,3.579-3.564,6.022-3.867,2.321-.291,4.635-.6,6.967-.95Z" fill="#ffa000" fill-rule="evenodd"/>
              <g id="Group_14" data-name="Group 14">
                <path id="Path_53" data-name="Path 53" d="M459.941,494.761c-1.938,10.9-4.467,22.016-3.45,33.041l4.7,50.982c5.119.942,11.979,2.946,15.357,2.831s1.526-3.262,3.134-3.464,2.228,2.086,4.385,2.518,6.05-.155,8.149,0a23,23,0,0,1,4.388.946q2.192.475,4.388.942c.731-1.572.466-4.787,2.192-4.719l7.838.313c-2.336-18.8-7.386-47.719-5.642-66.711.376-4.1,2.927-8.521,1.254-12.272C496.279,475.974,462.127,482.445,459.941,494.761Z" fill="#ffd746" fill-rule="evenodd"/>
                <path id="Path_54" data-name="Path 54" d="M498.6,582.042l2.4.514c.731-1.572.466-4.787,2.192-4.719l7.838.313c-2.336-18.8-7.386-47.719-5.642-66.711.376-4.1,2.927-8.521,1.254-12.272A25.092,25.092,0,0,0,492.514,485.7c.552,6.5-2.285,12.9-3.446,27.056C486.857,539.768,492.127,557.306,498.6,582.042Z" fill="#ffc300" fill-rule="evenodd"/>
              </g>
              <g id="Group_15" data-name="Group 15">
                <path id="Path_55" data-name="Path 55" d="M468.062,518.021l-1.178-1.381a6.135,6.135,0,0,1-1.265-5.518,5.94,5.94,0,0,0,.509.7l3.07,3.593a2.727,2.727,0,0,1-.086.708,6.919,6.919,0,0,1-1.05,1.892Zm27.1-26.591-2.257-2.644a4.923,4.923,0,0,0-.613-.611,6.1,6.1,0,0,1,4.313,1.219,4.33,4.33,0,0,1-.254,1.309C496.085,491.365,495.648,491.383,495.164,491.43Z" fill="#0f4283" fill-rule="evenodd"/>
                <path id="Path_56" data-name="Path 56" d="M476.57,509.432l-.555-.647a6.138,6.138,0,0,1-1.261-5.521,5.319,5.319,0,0,0,.505.709l2.547,2.982a10.874,10.874,0,0,1-1.06,2.237l-.176.241Zm13.917-4.931-6.709-7.859a4.95,4.95,0,0,0-.616-.611,6.074,6.074,0,0,1,5.237,2.1l4.03,4.723a1.174,1.174,0,0,1-.229.5A3.425,3.425,0,0,1,490.486,504.5Z" fill="#0f4283" fill-rule="evenodd"/>
              </g>
            </g>
            <g id="Group_22" data-name="Group 22">
              <path id="Path_57" data-name="Path 57" d="M276.676,519.3c17.642,0,32.1,8.794,31.942,19.639-.125,8.855-15.969,16.7-31.838,16.761-16.069.05-32.171-7.8-32.046-16.761C244.885,528.1,259.034,519.3,276.676,519.3Z" fill="#7da427" fill-rule="evenodd"/>
              <path id="Path_58" data-name="Path 58" d="M298.8,571.593c-1.565,1.057-3.052,2.061-4.65,3.025-1.243.759-1.4,2.147-1.365,3.554.072,2.676,1.659,6.938,2.257,10.1l2.067-1.18c.279-5.115.523-3.579-1.361-8.586l.516-1.745C300.085,574.772,299.365,573.2,298.8,571.593Z" fill="#f0c17d" fill-rule="evenodd"/>
              <path id="Path_59" data-name="Path 59" d="M297.291,801.974c-6.369,3.877-16.471.647-22.85.04-2.16,1.428-5.638.446-6.953.173-2.909-.59-2.321-7.73-1.476-12.031.681-3.46.036-6.154-.036-9.956l12.126-3.108c-.555,6.248-1.175,8.431.4,11.089,3.263,5.489,10.356,5.884,15.088,6.079C301.038,794.565,301.518,799.4,297.291,801.974Z" fill="#141313" fill-rule="evenodd"/>
              <path id="Path_60" data-name="Path 60" d="M256.136,676.319c-2.264-9.086-2.783-12.56-1.727-18.513,1.322-7.449,3.793-11.96,7.15-18.491l24.573,5.287,2.436,21.721-5.606,47.007-2.482,75.088-16.818,1.762-3.622-52.866,4.793-24.4C263.756,700.479,258.662,686.444,256.136,676.319Z" fill="#072c5e" fill-rule="evenodd"/>
              <path id="Path_61" data-name="Path 61" d="M282.25,802.73c-6.373,3.73-16.471.259-22.85-.5-2.16,1.378-5.642.309-6.956.011-2.909-.662-2.318-7.787-1.472-12.071.681-3.442.032-6.151-.039-9.956l12.129-2.82c-.559,6.233-1.178,8.4.4,11.1,3.267,5.568,10.359,6.125,15.088,6.431C286,795.41,286.477,800.255,282.25,802.73Z" fill="#1f1c1d" fill-rule="evenodd"/>
              <path id="Path_62" data-name="Path 62" d="M247.657,677.452c-4.17-19.635,3.7-23.534,5.671-38.137l25.1,6.751.77,21.5-2.7,8.107-4.18,37.026-.276,2.172-6.2,75.645-16.883,1.762L247.9,737.314l2.841-25.063C250.129,699.817,249.8,687.577,247.657,677.452Z" fill="#0f4283" fill-rule="evenodd"/>
              <path id="Path_63" data-name="Path 63" d="M262.477,558.468c-1.193.971-2.726,1.41-5.714,2.762-8.7,3.935-10.89,6.744-13.34,11.042-5.456,9.578,5.588,40.184,9.622,68.218,8.565,10.334,31.813,8.514,33.389,7.917,3.668-20.25,8.235-29.937,9.177-46.424.487-8.517.308-16.434-.695-22.4-1.168-6.92-1.171-10.114-6.7-13.862a24.394,24.394,0,0,1-6.326-6.266C281.928,576.157,264.35,556.939,262.477,558.468Z" fill="#7da427" fill-rule="evenodd"/>
              <path id="Path_64" data-name="Path 64" d="M278.933,648.918a36.316,36.316,0,0,0,7.5-.507c3.668-20.254,8.235-29.94,9.177-46.428.487-8.517.308-16.434-.695-22.4-1.168-6.92-1.171-10.114-6.7-13.862a24.394,24.394,0,0,1-6.326-6.266,17.375,17.375,0,0,1-.136,2.331c1.462,13.718,2.608,26.793,2.235,37.846C282.959,630.427,279.7,638.606,278.933,648.918Z" fill="#608913" fill-rule="evenodd"/>
              <path id="Path_65" data-name="Path 65" d="M261.144,559.306c-1.032.525-2.382,1.022-4.381,1.924-1.128.511-2.146,1-3.07,1.478,9.937.957,11.223,13.294,10.456,32.084-.58,14.258-1.945,19.995-17.241,14.851,2.214,9.845,4.65,20.52,6.136,30.847-5.244,18.333.641,16,7.014,16.974,8.071,1.237,25.494-8.722,26.375-9.053,3.421-18.894,7.623-28.591,8.941-43.195-.587-1.392-.727-3.51-.91-6.852-.351-6.482-.939-26.437-4.51-31.332a20.294,20.294,0,0,0-1.737-1.309,24.081,24.081,0,0,1-6.1-5.956c6.695,13.1,6.964,23.549,6.183,38.414-5.42.673-9.668.572-15.031.755C272.431,583.351,273.456,568,261.144,559.306Z" fill="#0f4283" fill-rule="evenodd"/>
              <path id="Path_66" data-name="Path 66" d="M278.933,648.918a36.316,36.316,0,0,0,7.5-.507c3.421-18.894,7.623-28.591,8.941-43.195-.587-1.392-.727-3.51-.91-6.852-.351-6.482-.939-26.437-4.51-31.332a20.294,20.294,0,0,0-1.737-1.309,24.081,24.081,0,0,1-6.1-5.956c6.695,13.1,6.964,23.549,6.183,38.414-1.5.187-2.912.317-4.281.4l-.032,1.05C282.959,630.427,279.7,638.606,278.933,648.918Z" fill="#072c5e" fill-rule="evenodd"/>
              <path id="Path_67" data-name="Path 67" d="M262.187,558.731c2.654,2.583,16.474,11.24,20.526,6.557-.3-4.874-.129-6.172,3.647-13.182l-9.693-18.484-10.9-4.956c-2.063,9.258,2.221,17.535.376,24.969C265.6,555.806,263.555,557.666,262.187,558.731Z" fill="#f0c17d" fill-rule="evenodd"/>
              <g id="Group_17" data-name="Group 17">
                <path id="Path_68" data-name="Path 68" d="M240.966,600c.9,8.618,3.231,24.272,10.972,28.656,2.074,1.173,12.061.45,8.7-15.01-.767-1.281-1.429-.655.552-20.592,1.791-18.045,1.161-27.394-11.065-25.221C235.371,570.748,240.232,592.965,240.966,600Z" fill="#ffdba7" fill-rule="evenodd"/>
                <path id="Path_69" data-name="Path 69" d="M240.629,600c5.885-3.892,14.991-2.521,19.888.223.176-2.032.4-4.4.677-7.161,1.791-18.045,1.161-27.394-11.065-25.221C235.371,570.748,239.891,592.958,240.629,600Z" fill="#7da427" fill-rule="evenodd"/>
              </g>
              <g id="Group_18" data-name="Group 18">
                <path id="Path_70" data-name="Path 70" d="M276.9,558.349c-.047,0-.1,0-.147,0a8.717,8.717,0,0,1-3.708-.439c-.956-.406-1.418-1.349-2.733-2.618-1.118-1.079-3.12-2.18-3.611-3.356-.591-1.432-.451-2.993-.706-5.075-1.035.576-2.146-2.4-2.364-3.381-.326-1.442-1.358-3.892-1.68-5.539-.186-.942-.075-1.69.24-1.928.673-.5,1.365-.23,2.368,1.144.064-1.162.14-2.359.1-3.633a31.668,31.668,0,0,1,.154-6.021,7.082,7.082,0,0,1,2.321-4.32h0v0a11.763,11.763,0,0,1,2.554-1.723l.029-.011c.061-.029.125-.061.183-.094l.107-.05c.047-.025.1-.047.147-.068s.093-.043.143-.061a1.489,1.489,0,0,1,.158-.068c.043-.022.09-.043.136-.061.068-.029.133-.054.2-.079l.1-.04c.1-.04.2-.076.3-.111l0,0a16.6,16.6,0,0,1,7.992-.762,13.542,13.542,0,0,1,7.05,3.115,7.088,7.088,0,0,1,2.31,4.3,31.611,31.611,0,0,1,.168,6c-.039,1.281.039,2.485.107,3.651.985-1.334,1.669-1.6,2.336-1.1.319.237.43.986.244,1.928-.322,1.647-1.358,4.1-1.68,5.539-.219.968-1.3,3.888-2.328,3.4-.229,2.018-.107,3.539-.681,4.949-.491,1.18-2.479,2.295-3.589,3.385-1.307,1.288-1.766,2.23-2.715,2.654A8.287,8.287,0,0,1,276.9,558.349Z" fill="#ffdba7" fill-rule="evenodd"/>
                <path id="Path_71" data-name="Path 71" d="M268.09,525.7c-.87,1.018-3.073,8.032-2.78,14.733-2.945-10.474-4.528-17.952,1.866-22.66,8.389-6.179,18.523-2.208,19.34.165,6.716,2.309,4.023,12.729,2.171,21.027-.057-4.162-.953-9.327-3.081-12.952-.509-.482-2.687,2.28-3.188,2.248C277.45,527.956,275.72,526.895,268.09,525.7Z" fill="#632404" fill-rule="evenodd"/>
              </g>
              <path id="Path_72" data-name="Path 72" d="M296.98,560.914h0a3.5,3.5,0,0,1,3.625,3.136l14.139,192.561-6.738.572L293.856,564.55A3.4,3.4,0,0,1,296.98,560.914Z" fill="#875208" fill-rule="evenodd"/>
              <path id="Path_73" data-name="Path 73" d="M298.8,571.593c-1.565,1.057-3.052,2.061-4.65,3.025a2.939,2.939,0,0,0-1.365,3.554l2.447,5.8c.276-5.111.1-5,.233-5.611l.8-1.6C300.085,574.772,299.365,573.2,298.8,571.593Z" fill="#ffa000" fill-rule="evenodd"/>
              <path id="Path_74" data-name="Path 74" d="M299.186,574.154c-1.014.68-2.3,1.8-3.227,2.41-.885.576-1.207,2.1-.648,2.608.462.421,1.662.169,3.378-.95-2.121,1.716-2.268,2.018-2.031,2.719.333.989.953,1.2,2.783.626l-1.458,1.137a1.669,1.669,0,0,0,1.035,2.971l2.722-1.561-1.816,1.446c-.713.547-.595,4.072,3.643,1.388,1.787-1.133,3.009-1.8,3.754-2.9.9-1.32,1.3-2.6.294-3.892,0-1.647.14-2.011-1.268-3.018-.258-1.435-.541-2.417-1.927-2.971C303.836,571.266,302.271,572.082,299.186,574.154Z" fill="#ffa000" fill-rule="evenodd"/>
              <g id="Group_19" data-name="Group 19">
                <path id="Path_75" data-name="Path 75" d="M250.323,627.686c12.537,8.435,26.719,10.571,40.532,17.484,2.264-4.295,2.439-5.2,4.209-6.96,0,0-24.161-16.776-34.317-24.736C253.263,607.6,241.894,621.787,250.323,627.686Z" fill="#ffdba7" fill-rule="evenodd"/>
                <path id="Path_76" data-name="Path 76" d="M307.794,640.109c2.027.683,2.01.867,3.471,2.27,1.161,1.119,3.041,2.543,3.228,2.734.269.284,1.63,3.881,1.63,3.881-.179,2.791.183,4.233-1.211,4.356-.845.076-1.257-1.2-1.845-3.924l-.713-1.277a6.171,6.171,0,0,1,.4,3.467,2.16,2.16,0,0,1-2.977,1.691c-.455-.14-.251-.5-.211-1.018l.111-1.367c-1.143-1.05-2.121-2.036-3.2-3.158a11.564,11.564,0,0,1,2.364,3.51c.3,1.133-.638,1.557-1.576,1.971-1.315.576-1.709-1.694-4.069-3.82.7.849,1.827,1.982,1.963,3.133.125,1.1-1.182,1.075-2,.745a55.175,55.175,0,0,1-10.263-5.564c-1.2-.874-1.913-1.856-2.751-2.334-2.1-1.036-5.251-2.187-7.426-3.075l5.19-10.488,7.795,5.489C296.973,637.253,306.626,639.71,307.794,640.109Z" fill="#ffa000" fill-rule="evenodd"/>
              </g>
              <path id="Path_77" data-name="Path 77" d="M269.541,511.069h14.225a6.787,6.787,0,0,1,6.7,5.385L292,522.276c-8.891-2.565-24.362-1.41-30.649-.187l1.49-5.636A6.778,6.778,0,0,1,269.541,511.069Z" fill="#7da427" fill-rule="evenodd"/>
              <path id="Path_78" data-name="Path 78" d="M276.676,519.3c17.642,0,31.942,8.794,31.942,19.639a12.453,12.453,0,0,1-.5,3.492c3.686-27.811-65.807-27.34-62.881,0a12.454,12.454,0,0,1-.5-3.492C244.734,528.1,259.034,519.3,276.676,519.3Z" fill="#608913" fill-rule="evenodd"/>
              <g id="Group_21" data-name="Group 21">
                <g id="Group_20" data-name="Group 20">
                  <path id="Path_79" data-name="Path 79" d="M297.309,764l29.047-2.144a6.321,6.321,0,0,1,6.738,5.841l2.336,31.9a6.348,6.348,0,0,1-2.321,5.37,5.021,5.021,0,0,0,.007-.9l-2.422-33.109a5.521,5.521,0,0,0-5.889-5.1l-25.383,1.87a5.534,5.534,0,0,0-5.083,5.913l2.422,33.109a5.966,5.966,0,0,0,.14.888,6.33,6.33,0,0,1-3.077-4.971l-2.332-31.9A6.332,6.332,0,0,1,297.309,764Z" fill="#0f4283" fill-rule="evenodd"/>
                  <path id="Path_80" data-name="Path 80" d="M320.464,765.362l2.568,35.148a6.335,6.335,0,0,1-2.318,5.37,5.782,5.782,0,0,0,.007-.9l-2.884-39.425,2.626-.194Zm-14.189,1.047,2.884,39.429a5.546,5.546,0,0,0,.136.885,6.334,6.334,0,0,1-3.077-4.971L303.65,766.6Z" fill="#0f4283" fill-rule="evenodd"/>
                </g>
                <rect id="Rectangle_3" data-name="Rectangle 3" width="9.02" height="13.867" rx="1.13" transform="matrix(0.997, -0.073, 0.073, 0.997, 306.421, 750.751)" fill="#0f4283"/>
              </g>
            </g>
          </g>
        </g>
      </g>
    </g>
    <g id="Cats">
      <g id="Group_9-2" data-name="Group 9">
        <path id="Color_Overlay" data-name="Color Overlay" fill="gray"/>
      </g>
    </g>
    <g id="BG" transform="translate(-210)">
      <g id="clouds" transform="translate(122.568 -107.838)">
        <g id="Group_1" data-name="Group 1">
          <path id="Path_1" data-name="Path 1" d="M488.106,178.716c2.691-10.846,14.237-19,28.077-19s25.386,8.156,28.077,19a33.074,33.074,0,0,1,14.352-3.2c14.3,0,26.157,8.706,28.315,20.1,10.97,2.711,19.028,11.188,19.028,21.158h0c0,12.134-11.943,22.064-26.537,22.064H452.948c-14.593,0-26.537-9.93-26.537-22.064h0c0-9.971,8.058-18.448,19.025-21.158,2.158-11.389,14.013-20.1,28.318-20.1A33.073,33.073,0,0,1,488.106,178.716Z" fill="#fff" fill-rule="evenodd"/>
          <path id="Path_2" data-name="Path 2" d="M516.187,159.719c13.837,0,25.383,8.156,28.074,19a33.074,33.074,0,0,1,14.352-3.2c14.3,0,26.157,8.706,28.315,20.1,10.966,2.711,19.028,11.188,19.028,21.158h0c0,12.138-11.94,22.064-26.537,22.064H516.187Z" fill="#e9fcff" fill-rule="evenodd"/>
        </g>
        <g id="Group_2" data-name="Group 2">
          <path id="Path_3" data-name="Path 3" d="M161.71,126.4c2.626-10.6,13.908-18.56,27.432-18.56s24.8,7.964,27.429,18.56a32.335,32.335,0,0,1,14.023-3.124c13.972,0,25.556,8.508,27.663,19.637,10.715,2.646,18.59,10.928,18.59,20.669h0c0,11.857-11.669,21.558-25.926,21.558H127.363c-14.261,0-25.929-9.7-25.929-21.558h0c0-9.742,7.872-18.024,18.59-20.669,2.107-11.126,13.687-19.637,27.663-19.637A32.346,32.346,0,0,1,161.71,126.4Z" fill="#fff" fill-rule="evenodd"/>
          <path id="Path_4" data-name="Path 4" d="M189.143,107.838c13.521,0,24.8,7.968,27.429,18.56a32.335,32.335,0,0,1,14.023-3.124c13.972,0,25.556,8.511,27.663,19.637,10.715,2.646,18.59,10.928,18.59,20.666v0c0,11.857-11.669,21.558-25.926,21.558h-61.78Z" fill="#e9fcff" fill-rule="evenodd"/>
        </g>
        <g id="Group_3" data-name="Group 3">
          <path id="Path_5" data-name="Path 5" d="M672.977,144.142c1.381-5.565,7.3-9.745,14.4-9.745s13.022,4.18,14.4,9.745a16.978,16.978,0,0,1,7.363-1.641c7.339,0,13.419,4.467,14.525,10.309,5.626,1.391,9.762,5.739,9.762,10.853v0c0,6.224-6.128,11.317-13.613,11.317H654.94c-7.488,0-13.613-5.093-13.613-11.317v0c0-5.114,4.133-9.461,9.762-10.853,1.106-5.842,7.186-10.309,14.525-10.309A16.989,16.989,0,0,1,672.977,144.142Z" fill="#fff" fill-rule="evenodd"/>
          <path id="Path_6" data-name="Path 6" d="M687.38,134.4c7.1,0,13.022,4.18,14.4,9.745a16.978,16.978,0,0,1,7.363-1.641c7.339,0,13.419,4.467,14.525,10.309,5.626,1.391,9.762,5.739,9.762,10.853v0c0,6.224-6.128,11.317-13.613,11.317H687.38Z" fill="#e9fcff" fill-rule="evenodd"/>
        </g>
      </g>
    </g>
  </g>
</svg>
