<svg xmlns="http://www.w3.org/2000/svg" width="339.001" height="232" viewBox="0 0 339.001 232">
  <g id="tractor" transform="translate(-739.722 -473.801)">
    <g id="Group_113" data-name="Group 113">
      <g id="Group_96" data-name="Group 96">
        <path id="Path_313" data-name="Path 313" d="M1007.01,492.707v41.352h11.255V492.707l-7.944-14.122H999.063Z" fill="#031936" fill-rule="evenodd"/>
        <rect id="Rectangle_4" data-name="Rectangle 4" width="22.515" height="44.924" transform="translate(1001.634 513.34)" fill="#031936"/>
      </g>
      <path id="Path_314" data-name="Path 314" d="M964.664,652.177H882.371a100.428,100.428,0,0,0,2.679-20.441c0-3.97-.015-1.746-.044-2.616h84.187a57.251,57.251,0,0,0-4.539,22.389Z" fill-rule="evenodd"/>
      <path id="Path_315" data-name="Path 315" d="M1036.943,550.955H930.255L904.667,473.8H773.68l.7,108.529c46.568-15.508,103.038-18.864,105.182,46.791H980.076c8.9-20.987,26.358-25.015,43.556-25.015s19.195,2.4,27.379,6.635V564.824A14.011,14.011,0,0,0,1036.943,550.955Z" fill="#0f4283" fill-rule="evenodd"/>
      <path id="Path_316" data-name="Path 316" d="M921.079,550.955h-78.4v-68.4h54.071l24.332,68.4Zm-82.524,0H779.73v-68.4h58.825Z" fill="#dbf2ff" fill-rule="evenodd"/>
      <path id="Path_317" data-name="Path 317" d="M886.763,556.25h35.6l14.97,40.088H906.3a94.134,94.134,0,0,0-19.533-33.86Z" fill="#dbf2ff" fill-rule="evenodd"/>
      <g id="Group_97" data-name="Group 97">
        <rect id="Rectangle_5" data-name="Rectangle 5" width="75.848" height="14.042" transform="translate(940.651 573.838)" fill="#072c5e"/>
        <path id="Path_318" data-name="Path 318" d="M940.652,592.562h64.772a58.047,58.047,0,0,0-22.58,14.043H940.652Z" fill="#072c5e" fill-rule="evenodd"/>
        <path id="Path_319" data-name="Path 319" d="M940.652,610.923H978.9a62.422,62.422,0,0,0-8.739,14.043H940.652Z" fill="#072c5e" fill-rule="evenodd"/>
      </g>
      <g id="Group_105" data-name="Group 105">
        <path id="Path_320" data-name="Path 320" d="M889.476,566.135l4.058-.285a.961.961,0,0,1,.962.919c-.849,10.967,4.867,8.414,7.286,8.506a2.851,2.851,0,0,1,3.135,2.041c.756,2.616-3.42,3.018-5.451,3.143-2.934.174-4.411-1.035-5.751.174a11.365,11.365,0,0,1-3.861.537c-1.443-.193-1.948-2.4-2.232-3.844-.4-2.046.358-3.09,1.143-5.348l.01-4.787C888.774,566.72,889,566.154,889.476,566.135Z" fill="#3d1d0a" fill-rule="evenodd"/>
        <path id="Path_321" data-name="Path 321" d="M892.969,548.828l3.071,24.744-8.248.938-1.32-13.622-1.6-14.256C890.109,543.818,892.729,545.733,892.969,548.828Z" fill="#608913" fill-rule="evenodd"/>
        <path id="Path_322" data-name="Path 322" d="M875.433,555.23c-4.068.711-14.033.614-17.732-1.412l2.507-11.649,14.308,1.354,14.308,1.6c4.514.658,3.93,3.7,3.189,6.083l-1.855,2.95A87.826,87.826,0,0,0,875.433,555.23Z" fill="#072c5e" fill-rule="evenodd"/>
        <path id="Path_323" data-name="Path 323" d="M852.264,542.236l7.988-5.745,6.374,1.915,1.364,1.683,2.439,1.663,17.286,1.122c1.408.2,2.021.111,3.165,1.088,2.34,1.992,1.153,6.441-1.644,10.392-4.828.745-14.705,2.428-18.915,2.6C859.816,557.382,850.6,555.544,852.264,542.236Z" fill="#7da427" fill-rule="evenodd"/>
        <g id="Group_98" data-name="Group 98">
          <path id="Path_324" data-name="Path 324" d="M855.478,502.883l-.657,4.894,6.084,4.333,1.128-1.156c1.251-4.2.039-3.724,1.2-8.791l-6.437-3.134C856.572,501.979,855.9,500.78,855.478,502.883Z" fill="#f0c17d" fill-rule="evenodd"/>
          <path id="Path_325" data-name="Path 325" d="M867.053,501.181a.726.726,0,0,0,.329.856.609.609,0,0,1-.412.663c-1.212-.092-.756.682-.662.691.878.087.77.406.618.682-.25.053-.358.155-.383.276-.083.377.623,1.127.078,1.784-.653.788-4.264-.851-5.942-1.605-1.393-.624-.967-1.567-.859-3.027-.775.121-1.389-.092-1.457-1.3a17.4,17.4,0,0,1-2.134-4.13s2.38-6.485,2.542-6.528,5.24.469,5.24.469c.643.948,1.658,1.813,2.331,2.916a10.044,10.044,0,0,1,1.207,3.206,1.575,1.575,0,0,1-.025,1.243,1.386,1.386,0,0,0-.167.484c.029,1.223,1.266,2.268,1.212,2.611A1.41,1.41,0,0,1,867.053,501.181Z" fill="#ffdba7" fill-rule="evenodd"/>
          <path id="Path_326" data-name="Path 326" d="M861.96,497.54a14.653,14.653,0,0,0-.339,2.273c-.623-.585-.79-1.04-1.305-1.518-.716-.609-1.624-1.19-2.272-.9-.741.329-.294,1.688.353,2.606a1.669,1.669,0,0,1,.3,1.4c-.236.8-1.065.469-1.757,1.277a22.445,22.445,0,0,0-1.663,1.934,7.122,7.122,0,0,0-1.05-3.554,7.388,7.388,0,0,1-1.07-2.384,7.068,7.068,0,0,1,3.9-8.371c3.655-1.659,8.037-.232,9.229,2.524a8.233,8.233,0,0,0-2.944.933,4.62,4.62,0,0,0-.962,4.226Z" fill="#632404" fill-rule="evenodd"/>
        </g>
        <path id="Path_327" data-name="Path 327" d="M854.752,505.6c-1.943,3.888-5.01,6.364-5.667,11.509-1.075,8.385.442,16.664,2.964,29.087,4.117,1.451,13.365-5.184,14.386-8.124.638-7.336,2.193-13.666,1.521-16.886-.51-2.442-2.551-5.779-5.412-10.639A21.4,21.4,0,0,1,854.752,505.6Z" fill="#ffa000" fill-rule="evenodd"/>
        <path id="Path_328" data-name="Path 328" d="M854.752,505.6c-1.943,3.888-5.01,6.364-5.667,11.509-1.075,8.385.53,16.708,3.052,29.131,1.585.561,3.719-.082,6.079-1.253a28.367,28.367,0,0,1-1.7-4.478c-3.616-12-4.519-21.094-.078-33.357A12.884,12.884,0,0,1,854.752,505.6Z" fill="#f98204" fill-rule="evenodd"/>
        <path id="Path_329" data-name="Path 329" d="M851.729,510.408a15.414,15.414,0,0,0-2.645,6.7c-1.075,8.385.4,16.708,2.924,29.131,4.112,1.456,13.4-5.227,14.425-8.168.638-7.336,2.193-13.666,1.521-16.886a20.579,20.579,0,0,0-2.3-5.276c-3.749-5.261-7.218-7.544-13.93-5.5Zm10.956,21.519c-.834,7.273-8.4,5.566-9.519.638-1.737-7.64-2.851-20.6,3.528-20.919C864.1,511.264,863.589,524.088,862.686,531.927Z" fill="#7da427" fill-rule="evenodd"/>
        <path id="Path_330" data-name="Path 330" d="M851.729,510.408a15.414,15.414,0,0,0-2.645,6.7c-.927,7.254-.02,14.454,1.874,24.3.407,2.118.986,4.139,1.271,6.146,1.212,8.5,9.185,9.763,18.091,9.406,1.128-.048,2.664-.2,4.4-.421l-.7-2.176c-10.191-3.414-14.337-3.327-17.507-13.854-.5-1.649-.942-3.245-1.33-4.8a5.508,5.508,0,0,1-2.017-3.138c-1.551-6.8-2.6-17.825,1.7-20.388.211-.817.447-1.654.716-2.5A16.334,16.334,0,0,0,851.729,510.408Z" fill="#608913" fill-rule="evenodd"/>
        <path id="Path_331" data-name="Path 331" d="M842.6,521.08a1.842,1.842,0,0,0-1.5,2.137l3.714,19.71a1.868,1.868,0,0,0,2.174,1.47C853.668,542.57,849.158,519.262,842.6,521.08Z" fill="#072c5e" fill-rule="evenodd"/>
        <path id="Path_332" data-name="Path 332" d="M887.587,566l4.068.024a.951.951,0,0,1,.883.987c-1.7,10.871,4.2,8.762,6.6,9.038a2.842,2.842,0,0,1,2.973,2.268c.545,2.664-3.646,2.752-5.682,2.718-2.939-.048-4.323-1.359-5.75-.256a11.35,11.35,0,0,1-3.891.242c-1.428-.3-1.757-2.539-1.928-4-.24-2.075.6-3.056,1.56-5.252l.383-4.768C886.841,566.536,887.111,565.985,887.587,566Z" fill="#643112" fill-rule="evenodd"/>
        <path id="Path_333" data-name="Path 333" d="M893.185,548.828l.113,25-8.891,1.528-1.845-17.235,1.879-10.9c2.257-1.209,3.5-4.072,4.936-3.922C893.038,543.673,893.048,547.067,893.185,548.828Z" fill="#7da427" fill-rule="evenodd"/>
        <rect id="Rectangle_6" data-name="Rectangle 6" width="40.187" height="13.095" rx="3.748" transform="translate(844.288 551.763)" fill="#072c5e"/>
        <g id="Group_100" data-name="Group 100">
          <g id="Group_99" data-name="Group 99">
            <path id="Path_334" data-name="Path 334" d="M897.9,520.725l-10.146,11.2,6.2-2.642,1.988-2.194Z" fill-rule="evenodd"/>
            <rect id="Rectangle_7" data-name="Rectangle 7" width="2.349" height="38.33" transform="translate(893.172 528.174) rotate(-48.235)"/>
          </g>
          <path id="Path_335" data-name="Path 335" d="M896.61,517.3l-12.448,13.743a1.9,1.9,0,0,0,.157,2.718h0a1.979,1.979,0,0,0,2.758-.15l12.453-13.748a1.907,1.907,0,0,0-.157-2.718v0A1.981,1.981,0,0,0,896.61,517.3Z" fill="#f98204" fill-rule="evenodd"/>
        </g>
        <g id="Group_103" data-name="Group 103">
          <g id="Group_101" data-name="Group 101">
            <path id="Path_336" data-name="Path 336" d="M860.031,525.452c1.644,1.523,5.579,5.667,7.792,7.113.137.087,7.6,1.064,4.455-4.884-.054-.687-3.013-2.916-7.88-9.754-4.014-5.643-8.518-5.121-9.749-2.747C853.511,517.381,855.292,521.056,860.031,525.452Z" fill="#ffdba7" fill-rule="evenodd"/>
            <path id="Path_337" data-name="Path 337" d="M859.7,525.737c.819-2.834,4.4-5.136,6.732-5.6-.5-.7-1.084-1.5-1.757-2.447-4.406-6.19-7.458-8.719-10.795-4.7C849.939,517.937,857.519,523.716,859.7,525.737Z" fill="#ffa000" fill-rule="evenodd"/>
          </g>
          <g id="Group_102" data-name="Group 102">
            <path id="Path_338" data-name="Path 338" d="M869.815,532.923c6.668-1.006,11.977-4.463,18.606-6.34-.545-2.065-.761-2.408-.711-3.506,0,0-12.993,2.287-18.728,2.732C864.752,526.143,865.272,533.527,869.815,532.923Z" fill="#ffdba7" fill-rule="evenodd"/>
            <path id="Path_339" data-name="Path 339" d="M892.474,519.905a2.92,2.92,0,0,1,1.825-.3c.721.015,1.766-.082,1.884-.077a18.141,18.141,0,0,1,1.7.769c.78.953,1.335,1.315.918,1.765-.26.28-.78-.01-1.791-.716l-.618-.2a2.681,2.681,0,0,1,1.173,1,.943.943,0,0,1-.471,1.431c-.191.092-.231-.087-.373-.266l-.378-.469c-.692,0-1.31-.029-2-.073a5.1,5.1,0,0,1,1.835.43c.442.276.26.691.074,1.107-.26.575-1.075-.039-2.488-.024a3.264,3.264,0,0,1,1.59.426c.368.319-.069.7-.437.841a25.222,25.222,0,0,1-5.054,1.252c-.657.077-1.187-.029-1.6.068-1.006.29-2.591.59-3.572.948l-1.109-4.043,4.082-1.17A47.67,47.67,0,0,1,892.474,519.905Z" fill="#0f4283" fill-rule="evenodd"/>
          </g>
        </g>
        <g id="Group_104" data-name="Group 104">
          <path id="Path_340" data-name="Path 340" d="M867.112,492.525l-2.355-3.719c-1.428-2.06-2.615-2.321-3.592-2.152-1.212.208-2.046,1.194-3.6,1.644-1.521.44-2.694,0-4.342.692-1.462.609-1.34,1.427-1.276,3.583l.064,4.812,13.611-3.632Z" fill="#ffa000" fill-rule="evenodd"/>
          <path id="Path_341" data-name="Path 341" d="M853.059,494.977c-1.423.633-5.569,1.92-4.823,3.96.378,1.035,1.963,1.668,5.672.508l10.76-3.375c1.079-.4,8.341-2.079,6.977-4.763-.466-.909-2.129-1.262-5.643-.189Z" fill="#ffa000" fill-rule="evenodd"/>
          <path id="Path_342" data-name="Path 342" d="M866.439,491.466l-.358-.571a27.246,27.246,0,0,1-11.992,3.554c-.3-3.216-.746-4.449.721-5.851a5.3,5.3,0,0,0-1.59.392c-1.462.609-1.34,1.427-1.276,3.583l.039,3.158C854.139,496.776,865.738,493.555,866.439,491.466Z" fill="#f98204" fill-rule="evenodd"/>
        </g>
      </g>
      <path id="Path_343" data-name="Path 343" d="M1033.131,598.022v2.742c.486.092.976.184,1.462.285l1.065-2.529a55.122,55.122,0,0,1,17.536,7.171l-1.065,2.534c.4.256.8.522,1.192.788l1.968-1.939a55.005,55.005,0,0,1,13.429,13.231l-1.968,1.944c.28.4.554.808.829,1.219l2.571-1.049a53.511,53.511,0,0,1,7.262,17.293l-2.571,1.044c.1.464.2.928.28,1.4h2.782a53.833,53.833,0,0,1,0,18.714h-2.782c-.088.484-.186.962-.289,1.441l2.571,1.049a53.682,53.682,0,0,1-7.276,17.283l-2.571-1.049c-.265.4-.535.788-.8,1.18l1.968,1.939a54.833,54.833,0,0,1-13.429,13.231l-1.963-1.934c-.412.276-.824.551-1.241.817l1.065,2.529a55.314,55.314,0,0,1-17.541,7.162l-1.065-2.534q-.707.145-1.413.276V705a56.547,56.547,0,0,1-18.988,0v-2.742c-.491-.087-.981-.184-1.462-.285l-1.07,2.529a55.234,55.234,0,0,1-17.536-7.171l1.06-2.534c-.4-.261-.795-.522-1.192-.788l-1.968,1.934A54.981,54.981,0,0,1,978.55,682.71l1.968-1.939c-.285-.4-.559-.808-.829-1.223l-2.571,1.049a53.518,53.518,0,0,1-7.262-17.293l2.571-1.045q-.147-.7-.28-1.393h-2.782a53.837,53.837,0,0,1,0-18.714h2.782c.088-.484.186-.962.289-1.446l-2.566-1.049a53.36,53.36,0,0,1,7.276-17.283l2.571,1.049c.26-.4.525-.788.8-1.175l-1.968-1.939a55.07,55.07,0,0,1,13.424-13.231l1.968,1.934c.407-.276.819-.546,1.236-.817l-1.06-2.529a55.3,55.3,0,0,1,17.546-7.162l1.06,2.534c.471-.1.942-.189,1.418-.276v-2.742a56.21,56.21,0,0,1,18.988,0Z" fill-rule="evenodd"/>
      <g id="Group_108" data-name="Group 108">
        <path id="Path_344" data-name="Path 344" d="M1023.637,620.648a30.865,30.865,0,1,0,31.314,30.862A31.092,31.092,0,0,0,1023.637,620.648Z" fill="#3d3f40" fill-rule="evenodd"/>
        <path id="Path_345" data-name="Path 345" d="M1023.637,642.675a8.836,8.836,0,1,0,8.959,8.835A8.9,8.9,0,0,0,1023.637,642.675Z" fill-rule="evenodd"/>
        <g id="Group_106" data-name="Group 106">
          <path id="Path_346" data-name="Path 346" d="M1023.637,628.351a3.238,3.238,0,1,0,3.283,3.24A3.26,3.26,0,0,0,1023.637,628.351Z" fill-rule="evenodd"/>
          <path id="Path_347" data-name="Path 347" d="M1023.637,668.2a3.235,3.235,0,1,0,3.283,3.23A3.255,3.255,0,0,0,1023.637,668.2Z" fill-rule="evenodd"/>
        </g>
        <g id="Group_107" data-name="Group 107">
          <path id="Path_348" data-name="Path 348" d="M1047.129,651.51a3.283,3.283,0,1,0-3.282,3.235A3.262,3.262,0,0,0,1047.129,651.51Z" fill-rule="evenodd"/>
          <path id="Path_349" data-name="Path 349" d="M1006.7,651.51a3.283,3.283,0,1,0-3.282,3.235A3.259,3.259,0,0,0,1006.7,651.51Z" fill-rule="evenodd"/>
        </g>
      </g>
      <path id="Path_350" data-name="Path 350" d="M962.1,671.012a66.5,66.5,0,0,1-1.511-14.14c0-37.216,30.558-67.4,68.29-67.5v10.083c-32.084.1-58.06,25.765-58.06,57.415a56.7,56.7,0,0,0,1.781,14.14Z" fill="#072c5e" fill-rule="evenodd"/>
      <path id="Rectangle_8" data-name="Rectangle 8" d="M3.884,0h42.39a3.886,3.886,0,0,1,3.886,3.886V20.307a3.884,3.884,0,0,1-3.884,3.884H3.887A3.887,3.887,0,0,1,0,20.3V3.884A3.884,3.884,0,0,1,3.884,0Z" transform="translate(870.035 580.109)" fill="#041a36"/>
      <path id="Path_351" data-name="Path 351" d="M948.007,604.6l-17.752-53.643L904.667,473.8H773.68l.7,108.529c46.568-15.508,103.038-18.864,105.182,46.791L948.007,604.6Zm-26.927-53.643h-78.4v-68.4h54.071l24.332,68.4Zm-82.524,0H779.73v-68.4h58.825v68.4Zm48.207,5.3h35.6l14.97,40.088H906.3a94.134,94.134,0,0,0-19.533-33.86Z" fill="#0f4283" fill-rule="evenodd"/>
      <path id="Path_352" data-name="Path 352" d="M827.82,558.775v3.738c.672.121,1.335.251,2,.392l1.457-3.458a75.3,75.3,0,0,1,23.92,9.788l-1.452,3.458c.549.348,1.094.711,1.634,1.074l2.679-2.645a74.982,74.982,0,0,1,18.316,18.052l-2.679,2.645c.383.551.761,1.1,1.129,1.664l3.5-1.427a72.951,72.951,0,0,1,9.911,23.584l-3.508,1.431c.137.629.265,1.267.383,1.9h3.8a73.719,73.719,0,0,1,0,25.533h-3.8c-.123.658-.255,1.315-.4,1.968l3.508,1.431a73,73,0,0,1-9.931,23.579l-3.5-1.436c-.358.546-.726,1.078-1.094,1.61l2.679,2.645a74.98,74.98,0,0,1-18.316,18.052l-2.679-2.645c-.559.382-1.119.754-1.693,1.117l1.452,3.453a75.238,75.238,0,0,1-23.934,9.768l-1.452-3.458c-.638.131-1.281.261-1.928.377V704.7a76.918,76.918,0,0,1-25.9,0v-3.738c-.672-.121-1.335-.256-2-.392l-1.452,3.453a75.258,75.258,0,0,1-23.924-9.788L776,690.786c-.55-.353-1.089-.711-1.634-1.078l-2.684,2.645A75.044,75.044,0,0,1,753.367,674.3l2.684-2.645q-.581-.827-1.133-1.668l-3.5,1.431A73.084,73.084,0,0,1,741.5,647.83l3.508-1.427c-.133-.633-.265-1.267-.383-1.9h-3.793a73.719,73.719,0,0,1,0-25.533h3.793c.123-.658.26-1.31.4-1.968l-3.5-1.431a73.208,73.208,0,0,1,9.926-23.579l3.508,1.431c.358-.537.721-1.073,1.094-1.605l-2.684-2.645a75.219,75.219,0,0,1,18.311-18.052l2.689,2.65c.559-.382,1.119-.754,1.688-1.117L774.6,569.2a75.471,75.471,0,0,1,23.934-9.773l1.452,3.462c.638-.135,1.285-.261,1.933-.377v-3.738a76.586,76.586,0,0,1,25.9,0Z" fill-rule="evenodd"/>
      <g id="Group_111" data-name="Group 111">
        <ellipse id="Ellipse_1" data-name="Ellipse 1" cx="48.115" cy="47.42" rx="48.115" ry="47.42" transform="translate(756.952 596.537) rotate(-13.339)" fill="#3d3f40"/>
        <path id="Path_353" data-name="Path 353" d="M814.871,618.162a13.575,13.575,0,1,0,13.773,13.574A13.676,13.676,0,0,0,814.871,618.162Z" fill-rule="evenodd"/>
        <g id="Group_109" data-name="Group 109">
          <path id="Path_354" data-name="Path 354" d="M814.871,596.16a4.972,4.972,0,1,0,5.044,4.971A5.01,5.01,0,0,0,814.871,596.16Z" fill-rule="evenodd"/>
          <path id="Path_355" data-name="Path 355" d="M814.871,657.371a4.974,4.974,0,1,0,5.044,4.971A5.009,5.009,0,0,0,814.871,657.371Z" fill-rule="evenodd"/>
        </g>
        <g id="Group_110" data-name="Group 110">
          <path id="Path_356" data-name="Path 356" d="M850.969,631.741a5.045,5.045,0,1,0-5.044,4.966A5.014,5.014,0,0,0,850.969,631.741Z" fill-rule="evenodd"/>
          <path id="Path_357" data-name="Path 357" d="M788.856,631.741a5.042,5.042,0,1,0-5.039,4.966A5.009,5.009,0,0,0,788.856,631.741Z" fill-rule="evenodd"/>
        </g>
      </g>
      <g id="Group_112" data-name="Group 112">
        <rect id="Rectangle_9" data-name="Rectangle 9" width="85.956" height="9.887" transform="translate(771.901 555.846)" fill="#072c5e"/>
        <path id="Path_358" data-name="Path 358" d="M744.27,580.083l27.621-24.238,7.169,8.772-26.768,23.489Z" fill="#072c5e" fill-rule="evenodd"/>
        <path id="Path_359" data-name="Path 359" d="M885.891,580.083l-28.038-24.238-7.019,8.77,27.173,23.492Z" fill="#072c5e" fill-rule="evenodd"/>
      </g>
    </g>
  </g>
</svg>
